<mxfile host="Electron" modified="2023-12-25T08:36:14.552Z" agent="Mozilla/5.0 (Windows NT 10.0; Win64; x64) AppleWebKit/537.36 (KHTML, like Gecko) draw.io/21.6.1 Chrome/112.0.5615.204 Electron/24.6.1 Safari/537.36" etag="DU_XpoBZMQ7o81Gw0n_S" version="21.6.1" type="device">
  <diagram name="第 1 页" id="a9Wf5TV9nVjGO6Tv2hhZ">
    <mxGraphModel dx="478" dy="281" grid="0" gridSize="10" guides="1" tooltips="1" connect="1" arrows="1" fold="1" page="1" pageScale="1" pageWidth="1000" pageHeight="1000" math="0" shadow="0">
      <root>
        <mxCell id="0" />
        <mxCell id="1" parent="0" />
        <mxCell id="3XijYi_biGYoQepiDn00-1" value="" style="shape=image;aspect=fixed;image=data:image/png,iVBORw0KGgoAAAANSUhEUgAAAQQAAADcCAIAAAAZcEirAAAAAXNSR0IArs4c6QAAAARnQU1BAACxjwv8YQUAAAAJcEhZcwAADsMAAA7DAcdvqGQAAJJ8SURBVHhe7f1pkGVJdt8Hvv292PfIrXKprWvprl4LDZAgdnSjQdFEmg3NZsZM82Fk+qAxfZWNSBFcJMqMAhoUCHJASt85xpHNmEwmGYxDETRSAxLdbPRWXdXdtVfukVtkZMb69je////4ve9FZGRWZlVGVlYi/uFxn1/348ePu5/jfvze++4rfvMf/pN+v9/ttAe9XrFYLBWK1Vq102m//+57nXZrcnJ8cmK8kKFUKjUajXq9kc4PcYgnCMXf+f1/MsAYuvsYQ6/Tnp6amJrcZQy1er1Wq6fzQxziCULxt//BP8YYer3uoN8rFoqEWq0SxjDodRbnphfmphMt1FhLWUjnhzjEEwSM4Q8GfQyhOxj0wxiqtXKnLWPYWr9dLnQrpX6iDWMAh8ZwiCcRYQxaGu40hrXV69vra9sba4l2aAyldH6IQzxBuJcxtLY3q6VeedBJtGAwyA6HOMSThv2Nod1uf2BjGKsWGtVEmjDAGA6t4RBPIIq//fv/vTbQ3Xah38cLyo3hvbff6TS3xuul8cZwhyCCwz3DIZ5Q3MsY+p3WzFRjeqKWaEGyhsM9wyGeQNzLGIqD3vLi3JHF2URriAaqQxziiUPxd3wHut9N9xlKxWKlmoyhVOgfXZ4/sryQaDOwa0ixQxziCYKMwStDt4AxaM7fZQzHjiwePTI0Bm2eD43hEE8oDr3/Qxwi4dAYDnGIBPYIA4fYGXM8dIEO8WcUrAwj2u8NQYaiwyEO8WcF4SblRjA0AC8Uh/ZwiD9DuOueYTDo9fv90ZXiEId4snEPY9CB/1giEg4XikM8uSih9MOglFzt9UWeSrXWaIznod4Yq1T2PLh3iEM8IbjLyjAYDPp9/tPpIQ7xZwD7GwNLRB9rOLSHQ/xZQik8ImJ4Sbp4FFeQikXWBiPIDnGIJx8lWYKNYQif2Q4iHOIQfyZQ/G9//x8XBv1Br4dbhBVgHI16vdVuvvHGG+Vi4fTJE6dPHk+0CYPB4V3qQzyJwBj0dgyMAZNIxtCot1stjKFUHIwaA/uHuOCULjsd4hBPFop/7/f/EZvlQa8fMz57hvGxRrvVxhiKhT6WkBtDt9fSo95GpBziEE8Sir/9D/6R35vUY5PA7qFULIw3Gu22jUErw/FTTyVj6Pf10oBApBziI+LwGt1jieI3f+8fodw9jIGTYrFcLDZqNYzhxz+Wm3Tq5AlCoj3EQwJzT4od4nFC8Xf9rtVer8vyoAtLhUKtUuV8ZeVyuVxaXlo6sryc0cpc9GmUsmtQ/oi8UqmsdJBRKk8F0klctMUt0xqjjbv+ddpDPzDHQbEFmi0tPi7LITYoFOj2u7rIZXptXLKYdavoK8P29XD2WOBcWWLi+kn2lWSdSHhnilqlfPT/QO+bhZukUZKzACK51n6B6sw2FYCh35AQVZHGORLwWdIx8tVf1WplYny8VCpVKiI9xOMGjOG/lzbp9ZK9GOJaudLtdm7cuF6pVBbBwqKToY1jwm5jAChgqcz4M/JEoSDNuqG/dEqshOZRIcagiD6kZCh6kQ38oNgUdliprE9S8FBGKLsSUp/op8vaGPTBHgatVg02Bgmn2iya6kzf0rAxWG601VJJQCk+UFkRjRiDkxQRH3mHWIKMQVsmcXGmGKbqdLBxlCW8kiNDxkDX1DCGiYlatVqrmfYQjxlkDHaT2gw3w8ioYQydduutt9/qdjpzc7OzszOJVOOfYPURiIeqEbWySLNJsSKiq3rulZhS0IiC3DAXEQ0fZqbiaBmLCrnSOdmJ3vjtciUruWokWRHZUbKCAJv/DKG7UkifmcxlJQApRcnjrFgSCqx+5IgqEWILkh27kWCGBBWN6IVor9ZB2wExziGS7itEq0iCQHxZcomVSlj49vY2U8xnX3rh8OXNjyHylaGD6mjMi8V6pcrk/Prrr3U6bYyBwACLFnUIjZL6Dv+k9s60GyHFzNSBc028nElD/GdWOtMhkekDY1DR/qBSRVsqzpP2d7tyr4M0NjY9pUg1pWW2ip439FFENSY5pcekAyKqjUSpcSSJIZCFgjyZv1zgzBh0psxUhDOSoLTyywRApJMhoqAWld5Li97bFkqdTmf15k0a+PILnzk0hscQxW/+AxnDYMDSr9dLkiJj2Nn5k2/9252dnYXF+cWFeTs+zNly66VT1g0NfWhbrnOhM0kPAtYpTZ0pJYrbkYgEU4BBodVGW3rT01PT09O41/1up9Vub21twQzVgazb7aL97U5Xq0ypTLXsNEjpdDvkBl8bQxIJEwnekQXkvYS6qtZcyDgNpEblCTaHSBGU5IbTZzorFjBdPB9YexMkRDpHytVqtfGJiXK5QsJOc+fCpYsweekzzx8aw2MIVoY/YMzCcdfENihUy2W89m99+0/YyS550yB3gOHV0oFaJJ1AH1BKsbCGkCEOyosEQ/nWJKtgqJYIRqj0oewiEjDRexYlbcBsu76+cfnyZXbUyEcRFItSzLW3bq3funVrfGLy+eefn59fQNpkAVrj1BQ0UnGOUYfz/J8qJapGeWpHEFUZ0/ww0ZQWLEqTIG7moywtY6pl/fatGzduYKjtlm+/DAYTE2MTE+O1Wr1eb7A/4KRaqZZL7MS6q7fWMINXPvvSgxpD3pCPhUzyB0TebQ8f7uaPIBWDkQ1lLhyDMRgwoVarqHBZI9JuowPOs765+XllJDCRMTToDPMU+2SM4f8BjT0czYqESqnUbG5/+99/q91qLS8tLi0thXIU7QKZS5o+0SGfSWFggGrIZ1CtQcdELPmiiM45yVwapwwhVk6kAe1WE0K2m6urq++9/8HW5mav04FgYnKKRlbrtavXrl+8eHFmZvYv/IVfOHPmDKuHF7cey0RPiwcxrRiKRfvDMDJECgzh5iZo5SESSIkWj3/ieRGOamW8erBY9LrUw1zffffdVlMXwVSkWMSxnJ+fHWtgBVNhDLVqnX5HhI3tbYbqC5//HLWI230j1f4xoS3cR4GmyfvD7lG9H+T+xAMBXdLAAc2uKaJRbjWbTELMm8yhuDbhWntYdo+jRrbAuDTqDWjW12+32s3y177xm+QyxFBpeoRk0Me8Vi5fYqTHWeMnxtEH9D8mbESnUqg8iVKJskgjT2dKU48kV9yS0pMhhYsHByUQN4mOmmelZz1WBzQRT7tSKVO2Ui6MjzUmJAdhbHx8bGpqCr9oe3uLFh9ZPjI+Nra5s9nutHGyMAEYYZComnYeBvEcnOpaTq3aSJCOop0ygrBj1joE8mNaKahBqXPUXvEXGIpqGQepMjU5efTIkcWFBYwBOcfHxo8s63r0/Nzs5NQUdVEq6qZUp93C1mJ+UcszjNrqwYHG2OF9MEjx0hh9OCB8oCA765fwOR404CtkTFLvcQSoLsM6NTXBTM8syb4XDdAAxq0danTHE0OLmDZdokXo9brJvITd7VUnOOxCdipuu5FSXI0/IrIn/QFA1Zgcyow+yX7rDbQ4KTeukoI0OCPeByZIUClN+S6solL9yMrMYBeCrWV2U9QCw6lkBxV/lIcpFuWdf9ieYxWWWGUGneGJgG1Pu60ZKzF7pHB7Hiz4//6hvnmQ8BDgsTB8inbj1LBsx/xl7NOGKCAhrOeclL/+jb9ExnCQtRModHvdK1cu9/tdTXUTY77MKGoT7QVlo7gJWIgxU6kOKeiCNYi4klyxDqSrgEGKgV5LJHPoMW9WK0wYAqve5MQkKxT20GiMVRqNZrO5vr5O+lNPPTU7OwtNRQtJGXW0RspY0Hh9ZhmoarXGH1qrOImmkjXxr6u6JeghVlJmHhLI/ai2UAsNYTGDmHxblYjdOrW3udP0MlOdmZmenZ0eGxsvV7TmZC2Ept/1Y13dnq6SheFwej9IPD4eNBIfAa7/PkM+jvcZVMR9/aBwnyhoDDJwTg+3mju31241t3eYfBgkjZk2FvxJjzWcbpM0hAGrVRhHErRoRkvFXPzjLI8Ca3oegIhd8W44AUMaQuc2rZzWXZtUJ1J2IUhRmnSuimhqIOZbVFgaaGWFADboKLEIATU9k3YkK5Ofg0N8qg5VE4N4F8GMkIGOC46yDbs2IWRkwcQcPMDZGIUIWUTIfKI4G8LkQ4wmRvxj4qPxCQHuE6nMgyD64oFA5+dISRngJxWv18pVZi15YaQpVQfN1A5OEBDYo26WHlonDpsybJH0w7ZkBAd5ngmRnMdjP4AiRHqO0S5SvdaCKAUiPaLWSOpzlZxby6RoAVoZ076VF5LgJhmDg1kJcavYbonYuB0SPWuK4DNZVgYYhGxA3Iz8NKMxmTZZyRryLAS0/ksaPeSVyak0fyAG3BUoPyrJCIIY5PE96R8HH43PA5WysA8AD+DHReIlqHfpeDxq3IG4ccq/chjbAptptg65MVgtFLxmMqv+7j/8A8d0CLVn49ps7vzwB99rt5vz83ML83OahvmT1gl72pyfwsHqorvIxJ0DouI0/KrF0EmGSNFsyhaz2wlfArcIz29zY50SMSFLRFyo/mDl8pWzH3yAbXz2c587cvRIq9WyZffarfbOzg6nRCyM1DR4px5TlKNlDjW1bLmECM7K41RLqA9pPfssvDI8LBw1PEcVtH8FUGw2AFR68fwlJMdhXVxaXF5eghJr6XaUhaXgQCHSxuY2XKdnZicnJ/CmoFEthhs3hCoYwZ7TxxMaoN2tuB98/KYFB6qm82/fuhl7y15PTimJKFYQ7ZGNUjjM7EhRnubODmX3zuIAxgrWmFAla0+WGym7cWeKkTTM2KdUjlEpVVnUbm871edICs7VTGxldCHVgsqy1cF+dra2t7e2tjY3+XfY2t7a3tl28AcGA2h/PAdFyBGnLSXHuWgoRTmiqHUYKnDVoy1K64PkylYDAAmyqXmKZ/Sj5TKI+IARIn0EpPKPE5JkRkoy4qq6o/T6h9tm0qrA7/zeP/a60IvFAQ6NeqXVar722g/Yky/Mzc3Pz0Z1ELv4EJESRxX2rO+cXARNyQTSg4rgeDJTIqiPKYOm2NF9aP2+aL1RZ5VAF8nHAyErrsB0Wr0rV66dO3cRt+mll15YWlpsdTY3NzbPnj3HgrC4sDCjG9hV6OEYi5kcGv2zgCKB5GQZ4ZREmVxIGcJIBC+u7g4SaZOyCkWqQ1SSe/1etVqbnp6WMWrxEQFVX768wrHd7iwuLiwfWUJ+KNkot5otXCbmKqrGpiAen5iampqcnZ0ZGxvjNIdk/jMM93cgxUZSEhiXFLsDjBfr8s2bN+Svelg10tK9NDcRyxITX8YOP8gXYbcZufLXf/M/cDr5iYJsxvDqlRWGcmysMT42FmO071DtSfTZaIrPkxgJFiwhT8nTk46yhNWqSIQBEKdtHBESTvQGoq+vb9DkpaWF8YnxdnsH6VG7Rr0xOzOHmqJs42SMT4wRxgg0YnzMN010q4IgKNH3UfjXwScQTPIZZOYgmHCSQ6NRr9VZWnWPE6tx0yQ8er+5uY20iEHNeEFovyxP9wFpAi3QJYtOpw2xb07z3xBNhuBzCCMzArpkd9Df3YHusIwTQd3V44ImOvo2gTxPxLYHJaBYDBHzLwtK8e//w3+iidKPMXhtGNRLZfyEH732fa0MC3PzC/PBJVgFzCulRDxO73NATSmkc6dIcF8aA0TQS0Tc3qZtA/SeTtB0jnl0C1dWrp47exF/5DMvPM80fHPtKhN0pVxB7ycnZ8bHJ6dmprXV9noS/DMh41a7LE5NZa3wsiQyU6qvsThMLrZZ/AX0WJ6IUHemEFym61evxY17d3ix3e5eu3qNdYy5f2Fx/siRJeYRyrEDamplKFWqFbp4Y2MT5jOzc3fuGUAuLVCdIxjNyrGH5tOO0daHzt/Z6EG6drgP6A0UZvXGNSKA+QagVmwhVcZgLSALBeNImp0OrQyMG2WL3/wHmZskSFNqJX2p4HXcpE6L3TN7aOvIqGSKcRpjEek+DikCcExC7MZoSh4PY/DkOmoMO+TjoXCMNvR7o8bwHMaAvmHNnXZXj8oVSti0eyEuBwjRMk6TvStFEc5S3XyEc8+MgiAyBlE5y/LpkpQgin4fUVkcZAY2ERJR+uvXb7DLYNVivWJbjzEgVWYMullNdTaGwuTUNG7SzMwMxhDsA64hnVrMIUbJcuyh+bTDfR6xMIZ9WmfHd5+uAPQGC++1a1cZfaZClAc1Jn1+Xr/DRpkYbHSEtVpdp2WhwDTbbbc3NjaY49gz/EFmDFGkWCn14fLGaz8cGoPFyoYjDRiHGAydO4uP0dEhF1hj0mMhOUyZl018Q7PQeEA8NwaZb6UMP9IpJWO4YmMoJWMoV2Un21s7hJ0mfnuHhQLu6CIrAJwlhzrYKV4bbBOGHuBADgWd9fW1iswYBAslECGQAgHO0vLSUtV3zUiKdfbm6k3WMfbrS0tLe4xBV5Nq1WxlKExMas+AMeCrwdn1CFFROnnMQOek2IFhlzE4PkzJ4BU8bTL3gNFDoTGGuOK3vr6+trZGfz799NPk0q1wQxtQCSZcMc6Mod1qrt9e19bud3//D6withUNR6FS1MpgN6npZ87m4k5X3h35eMXIjaQnFQ+1JsJppMRpjvyUSMQhGzUGIigKEeZa8oduEvtX3KSrV8+dO6cN9IsvLi4tVsIYNndWrlz/4NzFlavXg3kSS0jRTNIcd5xrvkjxESgp+y+wJhw9uvznf+7VbOnBhFB6FugbO9s7m5sYw6KNYQzTQjCW6bKMoQLzza1tjvWx8enpqbnZ2XClggtwZ+ytPghGyR4x9oh0p4QPC26jm0ls2OpdDZeP7ylJ2G0rjAIT4ZWVlePHjx89epRNGSmkszd0v0qB4yl7TYH+GgzD1u92b66unjt39vbtW76WouaNtFBnkgZJPnQIXM2w7Gj8brgrjetT5ek8+kINTlLcKUzmv1kKrUudbtfPjyqMoB3hDuj5vtEA9qQ4CJROfHTWYbJXxRlCtDsF3IOQMy+2++wxRYzCo8P9V3dnz9nX1WB5sJmJWASY2QHbYJTCSqCsbKR1gIZRoJnaQGMheiGAr+HAMG66fe873+l2WsvLi8tLi/lMn8GG4rGM88Cd45qTBSIx4lQXNYJID39Ea5hXhnqjEZoNFxaGvNLeoHzlyhWtDJXKSy+96CdAKdNv7XQur1x96933z1+8bH4HhVqt9tTxY3/xG19rd1pd+o3K1bWdm8M9w+KRY1oZMA67Sc1SpUIpWo4bRyPwaLXTv4ubpHYOL1In7DkNRIc8GjyCukaqiGlY/ZASMhT9NE46MV2K5SvD5ctra7du3rwpFYdyUOi12yrD7GUHR76uHpUo1rx09HpySer1mjKzuVjDEEwlgjzpqAb/ZPRhspQexHfKmghwIORDZPGIpNvg5u+C+w4wCOqELCb5RG+n0XNCOjEPjro9sL8zeQBQperE/IKVhLE1K85+mUHTt/m03/PApp5yvhbpLOGu2K9v9yI1/pFAbXt0iPuWdolSECRH+DjJ09nVRRBUq5XpmWl81FOnTymcOnnq9MnTz5w59fTpU2dOP3Xq1FOnTp44efLEUyePP/XU0WPHjh4/cfypE0ePH1s6sry0vFz85u/9D95PsmeIC0rsIAvNnZ0ffO+73W7nyJFlgr/WQ8V7h+dOaUL14wK8HLQsP2sL2iHTQhfiPAesosVapLxsjbEypAsCurRKSlTXK1ZWLl8+e/YsO5mXP/vS8vLyYNDRrNDuXl659uZb7527cPArwwlWhl/T0ubdAjswRF27yQZ6Z2tz68jSMm5rY6yBWCzDbKpZxJiHGFRWanVxocQOenZ2ln0e7Up8owPdFWA0HeSne9KfVKiTYhrJTlPKKDQD3n9vfDglatstFLqDAUEazyKiyZwet1qTyHITyAQTIi832wjU5nUk5kPOhzC5i4l938x9zAJlnMhRl38JulKT5l1tBnRhSEEnSiLoaTgoRKT9tYTVdJFEPFBQjfUVCVkfkoR+RacWWz9S3+l0EVLNif7xxSiX81dbSb2nWgelQFSBxfpxCmn2PLCgKvK2h4aoJz8arC8fDgZSNqB6pb/UlzKA5BiBEnL4HEQ9u4PYZGcJblNqlZOzYx5G3AnKW3vCvoTIcPAXnIyoQJRRUybSI4AqsjHsFlLJFqegKxXxBVf9KeRkQPGR032Rt9i1fXjI6Z+MoMOuBu4L+vC+wmjn3wMxlgQ2DyWmtq7fxoJf1BhvjE/yz/JertWr/lppTV9dMYg36vquzV6Q6CcNIgxBTkNfVYv5PgdbycQxUKtWqhVWBbvjyEafMEOwz7YCBQZ9loIQgQOFSvEVnmqNI3N1IjtAyK57nR4rXLlQqvrtGFWtT86TU1eORqtzQb50ZKBZvsJNO/FJd4+TRoPljyZrtdSCaW34UFiFPnpQtQ8UPhJoXxL3Q5EkG1qDvY3dQcxSl34oguu9oWkstU8Hyevh8blkiFRrI9GcQjH+TJBJm+j3Q7DLGSQTjGNEjIxKwaRZimh0/0sFs8mYvjCpQEu01+h29W79RwDf0tcLAbQxSk1Iq4S7NSNLn+FH6nnWkNxdZTqFoNkDKPdFyv7UIjXjAZEKHzDk4OrDOsYUpgHFAcdGGGYv9KGCjLQJUoDA8x1t08AGsm1ANHi4tfEpVRSYBivFErM3kzkwT8P8TQaoXVvwlGHlIRChBGuAl4Js+hexKup3ezvbQufgX5dPS7GEre2tdruNO4RwSElzWKyY672xUb+lPmG+8SaBhYy1IlptmsiP7h+CtijI8h8p3PMHjlTZAyJ1zX64o/8+FvQ941yZHfBLFLHkejRfQSu61HukScPTvI2oBOXkBFBebK2rIwFonN0GWY0JIlAkGMlKyhU+JIkBvUq6oKkFD58aIBP0m4DlZNX0MKlSDxYSABFx6er6WrV2+Ujb00UwPW0eMljIpGWMp6YOWtTTckKKWuLWBMddUE6KPkQg4acU7sJHgXgzSqzVmTUYoXXJGPjXiHv0nKR5Pyg05CkQRXApLxM5HHZ5oqm0Mvk08izi1KgUcUurRogRiCwQJVI8goyBOgf6gnSlihSkHCgshL58hxkQKumSl8SgJzP9V0oeUZz/bNug/omUfXGvvI+I6MNHgBivh47oyYMG7ogffJIOa58qXZQ6pn+NrIaGvQWuSwlvAALB+q/htRkF5GV5ClSu2YRqujnaB8s50IqRNsRiA6wZxIOSBM+t+Bsyq6Axh1g6IgjSQXHtW9YKu+mGv2YgUQ4STBjI1m61Op2uvlZlPUMeHKFKpYJ0yU5snRJTS6Abz7rQ6fj+up8jdGLwHIUGQb34MEFX3SdY39rtzo5vmBB2dnQL5YE4PHRQu6aQg0fe6dZpT0j5lOszHSOSfeQQWYrmcEIqbytIH2nV0cmI+SRAG802paBUU0a6qSBLTDkoFunhawFbSCJ9NAhRs+ZYTplnxA0JrSCR9ac8388h666iJrpPBugE2r+jL2bo+7FdoZdG5ElHiYmUUNS1Pg2QwDa4V/DNNj3n1NdNEI9kD5c3TMhztmm9rCRYNTTOnq/T3Tr3pvgAEkUA7JiJGg6IICmkHKwmZPXYBbc7ZIi96VVlvHh+UGg2W512R6dpsu3pHfVUi7tSKeuR3AMGvcR8r++p6RlubYZkhLRad8HRoY1We6fvy65Ip6aynejqZQXtZhs6yurJ23iL8x0rAH1CN7mrPhms316/eOHiW2++9YMfvvaj199YW1vb3NxkBFP2h0GD+7BBt0jTDh5ar5Nv79tZeXOytlmxY0gZvQyJRiEjUsR/DrroqLuIedCpbi1KQXSfz7cZNerdNPCm9wuGcXVQL9eOZJIy1epO0Y2I7BplQJJQY2I9FPLgoGlDT5XrUhpyhp2HwOTSFJm/X6Yf8EYLlCFUo1SeoP5OFDkiJy5CfBLY2tq6fv3GlavCzZs31ftIo5nqkwS98QigB/XodWm6ddFDqtWAIU7B6q3VQdBYBiDs9ntdZaXgBzhJHXQJcRHeyikz6OsVL4QO2m+lhYDpBq/bywBFmS4pjyxF7Un1JUkxyEdBpki8pKdZfRGTpQytUpDM6B6MYPoIdMhilCplVByZqFGa79UvrIHPthEdRQnMIN7jp07zV5esYPQ9fbNLYCVjC8p+RBqwB7du337/g/ffeuvtt95659y580xMFiblfiiiFQ8XifXBQ6OiAUj3Oz0O/kAIPjyjeStsTyCOIZ+sZohQyL1QqtPRgABxXNKW37kSBLIYmaL6kSNpnXa347eRmkCeBjlRLRQww/S0C89EltAhpixEdAcMdQsGSb1ugC4tRI+5H3qIofvPtRrnbpLmiVgBdWVAV41T1+02hF3QMDw8wDBq3Bf0M87n+vrGu+++98H7Z89+cP7G9dXmTpO+r+kev95akEg/DLTxoQO2qRkHDPusoWdWOPVbHDMkQiMlGdH4/YD0QzuJxkSrcmSKrnsRYuUPyHxU/i5D2zXfmNUeNbLc2mIknTxwUBs6jVEghQTJOieUn6jmD1/XUkr0h2x+AJH2+GrRaAM+YSAzfd7ptG+B27fX19ebzSYDRDqtSEpyf9BoPWzA1h184KCdnnelSWpzVE5AIa2v2uxF8HvA5fDg1BDYxLY7vVanx4Z2p9nZbrYJ8f2ycBKI7OzsEIlFgKM9og7HDk5Nr8sC0Ol1fKN7gIvEprilFJxtOVptfC3vQweFcq9fJKXT6RNaTf/ED9tsZNQosk4gqpwuCspODh50khqkL0qxm293463aYZPFEr3UYTOtJUwvcxhUSr3SoD3otWj1oN+hbNxj9wDsY7x3Sf6YMNf9wRYZj+idd97999/+zrmz51qtZqNRn5ubnZqeWL99e2dnm/Ym0k8CCK8Z8OChe1seXP6j02QKnAf2zNA4LKib9M/pjuRI6ZE5Ws6JUYPDCEjXApFBKSofDHQafSGhlJVAnBTNsD5lnHPn6FGYgipBhCQPHyk5B1m0yjsIkKUN45Z9L/KBD1pHDhwWasD0xXpw+9btjY1N1gS3yrtGv6FRVwIekTifMGQM1i7BI+Jbv8MddPrU+HoK1jZVU7xmcBZWfYc05np9cZR+i32sg0rJHyVBPMRXCNNIa4W+iZq+sWo+TjKIQov/jVAUYHEhCSII4VfwiqEFqt1hTdMSJ0V6VDokNUJX9ENJCCYBvK4qC1E7vpDaYknU4upGZ5bj+UB7Gym+VV8xwaUzO3vYCOZ3gixEXF1dffutt998863Ll1fW1m5p8DpdvVNzS/caaIrkvj+kxjxsaDv4CBCVeZASdC7HNhJ1iYlGEkHTCfb3NWfoI1YBQcOoo7pDR0fkNmjEddlENBmBYBJVGloSTKMCnXq6da5OXYGFyCKqWBmJkloktOTOqj9QIICQzqIfQmwCpu+ukl1j0u6oaIL6lj6PUjRGh914JNIPsbGxce3qtSsrV65fv84GWi8UHBtj00yWHd6WN9D68aFPFtHdBw3PqTEEGhoPmA0kzkzjZPttUtc4CiTEGFNclgMH638CRZJyipnOfBRyAuAqrEmJq4LZkqXEqMXsh7rDedgR6xWnw2oj++ARElKtpMqAPLpuhDHohUnJGFKe1kPIbbES08GFzW+IkS48cGxubOqugm4rXGdNmJycGB8fq9friBvLtZ8x0dXVTxD0SfTgQaMUqqQhskPCeDFqDJJ/AkdP2qCOOzvNra2tpnaumulc0ONmIK7XGAG/S9dLsiG3GmMnYW8qlpRdzqh8KbQlQkr3pCpfib++9taYqrha5XxJU7cg9Js8leQ+MRXHxV/B1SaxDgy0gm7YtAvR3GkiqYdMvcCWSo3wAmcjiDWxyO6arT/tVSt020F+FSVogsII3E6VPFAwpmwPLl26jGv0wx++trJyhTVhaWnxpZdefObZZ06dOrm0tDQ9Pd1ojPn6R4z4fUHz08OGGWvSOOiAohmep0YR46uxMdBUfSCZhNtFkyOlDrE3xZw+BKmGDOIabDxhkqJoXpt7P59K+byz0gOCFqxsbQyhnBxW677Nu8kIst1p94LphXT+UIHYzDhYM2FzU9Mc5skiMDmlpaHRqOMaaSosx3MAdkT/DKBUwS0a6GauZl4tEcy/2g6iW/QDS+XWNlsopm5mbjSPftRvLTLqdJ8XD/8KmhcH4pqds31IqsEYHVf6F/8h/J8cnEaKP5lb/aSkQug441KJ92Zvbm81W02NUWHQbLcY0JBW0OIWlRwwqBuj9Y4ltgesBHQd/kTFz1p5hqe73Bj2+3pDlE019QTSq2g/nvsahfPg3Gy1/GsROzS23WnT/Z4lHiRkoKa08HpBxgBuXF+9cP7Cn/7pd3/845+8//775D/3/LOf/dxnX3rppdNnzswvLEzod6yryHtzdW399uZw6f6wsLfuhwQbJH14sCFbGRI0XIxa0kOPnEXZNWA6U46QkvZDUtDdVgFS6n4g15aIckswcfdqYJVzT7NWBAM7T4wz6RbDScHi4BEdEKOeRLJUyUgEeUSo1NhY3VNEEs6iRqdFD++VV9l9PdARD1Gv3bxlddzY2tzWm2S3wzQ6HZyXDo2nvpjI9gsZVE0MqgXF87m5tnZz7dba2hq54+Pjc/Nzi4sL/r2IOiaN4xe753a7k01uqex9h49Q5EMCoPMONJRSxKMEho1IdWtgnb0LkWSaIaK4OGSI+J6Uu4FcM5ExoD7BjwJol/cVWkzQEvRKwV9nwD7IQhpKyoAyKzp4eP6WziNd3nNlYprwvWugQfPz83je9XrVuxlTqYlMchCirSieVuLISKAprBed/sb6JpZw8cKlC+cvrly+wlzO6e1b61jF1iYLRgt7YIu1S/v3BOu/BFPIPgqDzc2NCwbM6c+5udmnThw/c+bU6dMnp6enqrVqu92KXz7a2dnRk7ns0D6iPTxMoA92TA4w2EWKwdHwSqc1xhgA3akmoWCepIcQXZwnyt3wkA7pidOSSOEY80yoeyByg48j6f4DjgRuCHUQb+q3qbbW19c3NtY5hdajq5IcMiGowi05YFAL9UlEg7WJc69fkpaAUCUMo19AXv8kDLTxrR6WC7VeVykyNU1MdwNm2D1TOBr7+us//nf/7lv/8l/+0R//8R//yZ986wc/+OEbb/yEje+777539uxZdPqKLwatrq7eunVrc3OTUmm1DJPINvGEdqvX3Olcv7b69tvvXL50udlszs5Mnzl95vTp0wvzizNTs+VSFbGRkx5FDPdwqThgBUY97B7rW173FfSlgIcawmM42BD6k+mSPtOISqvUG+qQDM42ubPjdBRBdjcEt7CHPBJZeXGOmm99dTXkYWiZ/lm1MQkOWh2cG5aQl/2Quh8qqA0xEtRXqfNCFPpGWj4o7Ohn4FBNGSsaRgSRHe4KM1BTKIOl3by5trKy8sEHH/zkJz99++138e8xj0uXLmEA169fv3FjFYLbt29vbGxgBkzk9BJTSWICmyyEdKwkeFk4XVev6PFs+I9PTC7iIc0vTk5MsR/DhpFck0ta7pBV7qhmP61nybo+NLjUQw9WmoNE+etf/4barBlAlyX5Rxu73e7qjet0ydhYI16OC4b9m4DWpmVBJz66HzWpBKJUkHEacSIsCMStSAJxDIMj4JR0yGu1mlamQuHMmTNf/OKXmMAYfXKZz+zO6g2+enS0UJyenoQnHDa3tq5evY43rLoPDFTUqNcXF+bsDfVY2mgOLgsLF6L+zFe/euz4sXK5goP06quvNhoN0pmtaRnNpYH0SaPeqFXjZ6z023MgOGdxGFbm5ubj/ZMTExNk4bWs3769tqZH6VgHLlw4/+6777711lsYyfnzF957T0Zy8eIlwsrKlevXrqPuq6vaF9xev91qNrf86pC3337rnXffAZcvr9Tr9WeffeYLX3jlxRc+gzlQLRLG7zoyF2rqabZol36QoFJeWJjzs6sx/B8e4rF9Hx9aENsDBgY3ghgVjnbRTCBldZ6hkUrRD5UtSIJ2FJEL0vlepHQIUDYUf3trmzFC25DI9mOZkhkOEaUeIahRlSIJc4cMw7eckYQekmK1mszZ7HnZ7XIqCaP3sg7cM7WMINIH6N/k5AR+/NTUJFNSzBdk22TkZ5LCaTzBwhyBo0+NbItv4DMx87NJ1i7Zj6LqadTb3gno6SMKVipiThXwEavsG4JIJe6CqlFnf4S+PYDhMEd1y8GF/AcOdabW2wwY3etXVzrttr/UHnvZ5O6DuJgOcp20dgo+E3UeiUSVzyAOI+nB06WHxYWitnr4A5sawU28ggvnL+APMNcy9prA+j1WDwZyZnoKLgi6ub199dqNg18ZimON+pGlBQ85bdc3NJrNbVYAugi1X1u/vXpz9fqN62+8/gZTuJ76xIlG38o4pWzTCrWGXjHD8oBGRvODsyMYU1/vZ8BNLhdnZ2ewBP3WY2EQS+Lk5CTLBRN23Bcjlx6gIBM/ZkAvsZHAjzp37tzKymWg9eLy5XCuPvjg7MrKVShZ8JeWFl955XNHjx2ZnJpkl5wbKq3AeFZvrBLBTTh1+iQ2s7A4P0rzoUETKRI/3HDwYK+jGcoH1WeNlFI6Ysfdcea9HOSwWnjBYPRiRtklrfR6t2Z7xBNEnaUD4hATiazgpNQeU2wx3f1RXpEIfkVwFmXqe/QLiSWhHZGRdezgkPpHIKItP2CPzG4nWuQsz91M525RlPO/uyFa6wYYWYKJ8lAo1Ou1hYX5U6dPHT9x/OixozQwNgb4OceOHX3l86+8/PJLL7zwmeeef+6ZZ58mPP30GdLRdbQcK0LMzc0t1ol4CI9phYqWlzGlpYWFBfYJ2JJrlQBIS3NwQjFv+hKx6X8I3BohKO+JTO6EOH0Iwd3D/wEGjCGXWKPoBiv4hlIolqbtzAySBhhQUVzzQI6UkyESNfC7EekAmuAZp5GnSy2YQ3/A/h7fmsVJOxp50npNUZSCMFYqk1MePl2kVPSgkdUXYhPRQ566+tvtd/S0s3OVqSuqvnYqOkQlWDpvz+Jc8geUsR9Qenz606dPnThxAi3HDHaachoxEjYnn//8Ky9iCy9+5vnnn3vuuWefwRaePoPNLGIMk5PadxULGABuE2ssSwfLAvq9bGtYWMQYxnJjAKH3ehiZtmj0NRmVSkrMlOGB8JDHIjrq4FD+2m/8pmTWAHpoFdhAd66uXKbf/TLhBnmMGtQhUw6Wh2xnw5nY8cFJTpmnRJxIDucLEeeo8uEv+cqg6EkuDOr+6WUqYuHGILEB9qPMjpRCNsxjdm6aRCJbWzvXrq+u3bptxgcF6sLDWVqYQ0ILznqgO9DsPscmcGHGOW932rRDSm+TRclynaMU+o2SxREK88kBQw9CBnLhwZpYq1XxijY3NjrdbnNH39Kkxq2tbXSaXQV73CNHlrGWE0+dOHr0iCzn6BH9HMfxY0eOLh8/cewEMXJPHH/2uWdfevnF5SPLLDjWdQmQg30FmzRtM26vYwJHjhxBImqXWL7OQUMS6T0Rkn+6ICdnV99nkBoaxD2B7YMgMKXCvlD2bqQydyAlRnZGkI8UIub5HCLkZEY21T46RO0c06VHieTZgdRMbkVEtEvUBwP6hyVMTEzMzs5OTk5hcSQy37NHvnHjBosS7hhzfPwACssIPhKBxWGJBWB5CSPBPNgeHDl6ZPkIGQuQQYyK77GEvK4wXeyZjYqfX2I7th2bFqZI9ftIc1LhEeyb+Pij/Bu/+ZuagvMhpBWlIg7R6vVrTAzMXkzLItRdiT1zmEfa9HnOnd2Un0YkjrAajcdppDD3d70yaMfmOpi9AF7J1uYW6cRxaPWdHv0E7RhOFOoBIS4Bu+prVw98A01r5cfPz/iEv3jHxYB99Ji+D8DKoMdaaZwvVbt3/DyGS6tPWNCQlq6VOobHtAvqFhJHgXZOTIzPzs02GvWZmRlIfKlqZ2XlCvsolLVSrcKWgtbmGltk28YM0z+z+/Hjx0+dOnny5FOEY8eOkQUf1zUEfYv24yMRx6GKX/Jlhbh69dqlS5fPn7tw9uw5duNkXbt2nRoB1tHt6meWAsEHxMg+XKQ6DhJphIyUlM7cpF3wIBnhNWUhJaYuyDnkkSgdiDQizhEiXTyNxHKkrIWSyjBYQSkK5UepRBD0jwDUNFqZTiWPRYi2JKcykjS/kh6nlj/lufT9IoqA6enpubm5+YU5DMP74/7GxgYqi2oybauuu4CyTDqYSj717EHwx9tkusFaWEC8w9amghkKw8D8WIgwP9/yvnpNuM5uxJdvJQA02CdisOWgSOJ74EhqEEhpwp700bA/yl//xjfIphOht8qV+rrp1rl25Qrrr94TUqkEw9xyGFMNv75Q4JCmNkj6ngdFFkkcXTRVzykEREiJshGPY1BJlaQ5uhRJEhuImETJvaVvJHaZCBGPbQP8mN7KFfYMM1TKEDIWj+TSaoldzNLCvDrLlyBKRblJ3Xa73hgj0I6uXwBFW90EvSGGVtCToSI4PEhLCp2LfkZf5fCk477YDfdeKS6n+m5jAZ1bvaEbyTj6LAtj41oZ2LSYfBcoCxAjXKOUegegiWcxiEyMyysjiZFo7uieyY0bq5jA9evXvRe/deO67n9jiuwy2MmwVm9u6jX9vteuZt7phn0chHgWcxeG6uMLiTkN5yORXf25Lx+Am/QXIXYBk+ghFt2BvnXzBqn6cZ56reAnoyWRPgiJdTCVGC5Ow/nErCIXRBYgPiIBp0pzeuTmRaw7nkoZg1ALlAaQyAYaYiSir20MBd/ErUzPTDHMGAyz0pVr1xih4HVAkDE06stLC54NLLxE7rGpH/MN44G+EUUTokPVQt1iQAXdgy4uNwlUK7pWM9Izwt2MIQdFKIryM1Mx+bCTZj6mT+h5fEt2C4kug6u9X4TdIiFWNz8/h6PF1mPeYEWanZ1mraBqGsUKwGrAynDZ9zGwFlYKnCtWCe2+b290e7qogC5htN5ppFUr1fTgiOL3xp1kURaB86w8sgfaM0AHOGHG10FXk7prN2+gl94yMAlJdT0PMp9nB8NMVJwow2w1hlXKUUZwHhLnSFk5AVGd6mk3aRLGIKpCvmfoyRgKAwwA8RgJ6gxjmJmdDmNgZWAFX31UxqD2SGQtCwiNfTbGmE8nEKzX1ZQQLaY5sgBfhOHTxT+WMUDvLqnFpHDp0iX8E7qRrmD79NRTJxLdRwLiwZrOZIuCYTP8HMfHMQABmamd3m7p9+Fb3lTcWl1dZdGgmawS7CJYqXRtttPBMr2j0DjGKMM8OmFPkx8KRhRJuLOKe2QFyl/7jW/Q+wyfnB9aqXcAM7K9W2urbGUZLZbWVIn9IfkGGS+qB0q086NRd1Mji6MKGUEZKaNHkHeN4+xFfTeDjpMxyMZw1Qj9nlYGspgLMQYmG7Jwb1Em3CT0gFl5p9m6cuXajdWbcDs4IDDGsLQwh3iaP4q+c9nvb7XaDWnQFA1AVZgXSY4i9KuWBjfWxb2BbjQq8Z5MNz+D5gJsK3qM8ncGACM4orIzszOtZpvZGl8FDwalZLOLW4kihvnlRR4IFKRLa9UalsB+nWXhyNEjJ089derUqRNPnWAvfvSYLk8t+s4d2xe26VEQ88CPOndOj069+VO9cYOd9/kLF9hpsGLosZVul86IFu9u+IeAzlDH3IFonyMJwTZnnmeRElAP78MpezZpKBQxn/jJvWFyQip1Z/dGsTvoM9zJajRln4oysARRWWycBRluJsCwFKcyGyXcldNDx2hNEkjBs3pAsmQSJpmzRiTsOR3ibum7gBWxbE/qeusM/gv22ev2trb03MqaXXn2Vbpjoy11yPUAITqTOV0/olQpVWsV6qIKlgh2LHhQbCewEGxAYVHHsHeayTzFuhEXZOUu6Q1968izrR/+0pXZGM8HhQXbB1nuEHEa6SASR7FfmlD+jW/8RX3a74kfG8ECWRNurd2kcytpRtMT5bh85g2nVEfMajHkEYnRj5iIDOgjhdw4BZxQ3DqjEhEhE9eXmZVoheVY77pmgqsWyxXcTvoVyeq6uKG38cGCNYOlbG5Oe4ZGY3x7u3l55cqNGwe+MuA0HFlexEwd8Cu1mrXaXVansfExZh2GnHYiFS2N3WS0PzSGmVuuCFtqFK24202yxyUNhi29REGO+wYcyEplXG92qeLbN+3B7+w0Vy6vMCxbm1t+MFb7bKpUjz8MICprGlbBNh4LZGFYXl46enT5+PFjZ8+eo14aKw/J38SL6VeXEdxpyDM5OYFIbPHpBjc6uN4voL8zGK7IvZj3ZWQAk1nBMzVDsLz4aGCT2hMvuMXarJvKGohAsDOG/ECMn1P3hXho8AWfZ3CukJ0qZHFBVWR1WHSCc9WtXqyUq/TQRTEQJD4hOz1YWGiFIeg/fQWGVMmnzOhOA1XA68ASYn1OvbKr/ANDTIyZGV1snZ2ZxrVH1UgJjWROszyErKM+dmAy2tneZpq/fu36pYuXzp09/+47773xxk9ff/3H+iaTriZ1aCzqzl77zJlTzz77zIsvPP+CHhZ5hlNtwKc0c+3ndXxEmJH0gX51xFf4NNNqIk0h7VukJYzL3eouMYvJTddYQs1n9GB0o87DRoBYOERD4hhZI4iCChkNUiaySAlwKs3w5JGzURkjaFRdyrEOka5rMmqY6vYhhpmisNKikl2yOFiouiRZtJXAeiV7iPzouci3MXjLW+UEOdW0vGUjcNHdCPZ3CXBBq+bn5paXFhf0FdMpNg8wxzFvt9ocPT9ki8zDCP1ub3tre0M/aHLp7Afn3nrz7R+99vp3//R73/qTb+Ob4RHF8+FTk5NLS0svvviZV155+ctf/uJXvvzFL37h8y+/9OKpk0+xiLEshjHsYf4hAfr9kCdbH2DMSuRjyd8O1t6qSgS1cR9L2enXVGYPfvvv/3cxLqZQYFVvtVrvvfN2s7njHzlnqdXvJEDs8RGibFZKiPRIyRHp4r5bR0l3YirOJyoS8a5BVq1SicbpRzzrtXanc+3aNQZ4rF7faTY3t7YozHaVvNNnTrCTnpyaunb95g9f+/E777zvSg4KzPBMxi+/+Lx/fadfHHSL+tpz9+bt9bn5xYXFpa7eNLWD5yTtt5vEXIh3gZaQyJF9JxvT6cnJRmOsVNbTQcGZ5mNOMio231lKRPaFOnAwiEur/+b/929fe+11+hmX/dVXv3z06NEXPvPc0tJiOGapwAMC/jEc6MO6vP+NW7dvX7l6lVPGottJb9dETIbvmWfOsC75nuAsK8DkFK1r4MSSGDJwpDn3btG9QLn9yqIe5XJlaeno8WNP0R/sTBCbeYjqwsnnsLZ289LFC63WTiwNg7uIEF47lUQQRmskHvuCdH5/UH1GnLp44pAnjhLE2TDmeHzkIU8JKFGn9tljolQzPQs+EqhR0S2Wj0P0kqQKeTJB1H17V8J74kFaAC3TRKvd2WLC3sAqmiTa9qoVf3HnI1tCIMTGwLZ3musb6zdv3rxx48a1a7pstXrzJraxvb2NtdBANtZTU1Pz83PLy8vHjh176sSJxYUFDAOXqe49EpJAlvg+PHgjVh0fm2A/v7S0zN7eYWZmZnZmdo4wOzuHaGGKuR7ui+I3f+/3NXy7XuBTwvTffectPYZZr481arI0Pby0ixGso6NHCqY4Wa54NCtFIh2QBTiFCRHmw6CNGzTkx91LBpN+LFerzL10PwNDv27ZbaXUOCtDrXbq1AmONP/G6q3vv/bGI1gZcNA/+9Jn7IH0i4UuiwMrw6319bk5XVvp9vqxMjArISQy0xT2DOouD93C4iL+/dTERGNsvFzRipFYy4nyypC5W/cYOtjGxf4f/eiN9fX1n/70rWvXr83Ozh49euSrP/MVdrSoJl2Xd/h9Arbglr4Yp69Wnz17fm1t7dz5Cxgb44Jw5KLcp049BX807siRpRPHj7MgjI01aIgGa+SZ8EeAemOMxWHpyPFjJ07jDm1tbCBnp9vxteuGp4PC2s0b5z94p7m9jfCMB4OSCu8GiphihpRTiushdDHPt/zvV97Jw3QK50hJ98Qeyohy3Fta9iIvMKeIfKo2caJGDk/QjwKqSw3PqtOJ427RqPjqoKyLdufcC6wj8h2j8F2AXuKgb2xs6pUhuh3Zj3sCbKaZGpLt5QJEuA+g8GyCmW5ur6+v6YbaTcwADvDUtnhu1g/8ncAAjh/D7pbn5+YxAxYiq92BzP33RtYytMT7chSlHJcrrMlxIUeE2e5SF1442yeki25EPUdrLlYFzHjMAh0mPM8F7Ez9GpSMWEgnGUhRrfeBKJvHA46PpARTOUFF9kH68ilbCG+NosEp1zKLOi9gSQ4c6qDUZHo7Jg2q5owhQShiIRNzChMVR5Vy0x3S2bD9GZRoSyBoooopab/Q7XTw4i9dunT+/IWLly4zLaCaJ08cf+H559hPj2ffmQ5kQ/fhYFbd2tq6fu36+XMX3nvvg5/89E3YowMTE+OwffaZZ/7Cz//5X/nlX/r5n/9zP/uzX3311a+89NILR44ciS8ShS+UWvLooNYxEPqKslfCSkXPqnBUX7N5QGdQbJTH/Q+kQPth18oQ4xfwsERpDRFRhwSnZ4OaIU6jOIgsp0RIIFHChSLv6juGOG2jIwsqNjUUZfDJk0RpHbdM2ZruDadMFwOGzKwOFjQrpiGfqakSSE+j6OFtOXyikMXmbWHi9KOHUu9oyD0QDMWT4ncJNPn6jdV33n1P31e+vY7LfvrUSabrxcUF3JiYpUeD4HrvHSiIUkOqb+7p2111duGfffnFV7/ypZ/7ua/+zM985cyZU+GDhRMSjHOkBjxCSDP0NfTWzs5mc2ej097ptLfbra0Izebm9tZ6q4WD5MuktNE3u/ZFrKTmmpCdRN+MIDV3vwbniYmrOXJ0emTtqoN0D9YuVnlBK082fEyxZGlmg5HoY5KDWieO6z6dgtzZXdUcENQmNYBjSnHrSOIDw0SMoIg806b7DBJYa8ierr0r1AV3AaO7ubFx8eIl/JlmqzU5MXH0qL76PDs706jX1YEUf/BgY9CXzqNPme/ZID399OmXXnzhc597mXUAS6CWyckJvCPalAT95CAN0G/osH3abjXZ2LS6nVan01RoN7GRZnO73dbPEcUwcVCR/VD++jd+3SrHyGneIpTxnXr9tVs36QwtPYw6fHRxXN6W1VX/oa9S2xG1FpETI0IFpHlcUlbUyilH6a6OSsjUWBfp5FdgplYmUqvVCkOCQbCpYzosV8oQdNt6M3G1XitXK5NTrIllHINms33t2vWbawf8tc+iHgpamJ+jNWqo5iY9hoQR6HJDYxyZEZBWRaco4oaHkdA5OBV4FLomiGevyXW4PHoJTFYdPULhiEdga85OHcfop2++/e77H+AmHTmyzGrw5S9/8eXPvjSl90PWqIPudr8GB1kpp2yL127f3m42ddrv41RAticgHkZ76fLKB2fPxUvKjh458uqrX15eXqLVNMQsHyN0/OOxa6s3z58/e/HC+YsXzq1cvnjl8qVLF85funDu0sULKyuX1m7ebPnnuRgGRsye7H4hscwQjbXeJoUGTtIhjU+GlGWMxkeRM/TZENlICRGPBA4KShqSqLA5KD1L5ZzRc6LKSFDRKOWRQGJoks/EGK14jxAhNiB6Z1fsQWreXaALqXryYputc7vdhhs6ytZ5bEw/MsKsQUrUxdizWuLrQLaND7Gplxdv6mNrZ6cJn8RxN6gdvag3xBMfiRTmRPXsh4n9QAgJAynpoyI1s9NG3be3tpr60Qy9v1yvQROYPZQCkdZkQx+05o5Q/o3f+A8LA10BZNJnQmEl7xX6nV53/fYtpiftiWoVFgs9t8FMl6YPccw7KO8mIlomsn1bnuj0dL8ikKdDRWM4DXpSOGUYVVIpmlz19SL/nPj65gbHcqWoh1Y7XQRh7Mlq+AVEOM3tdufKtesH/Qi3dKVem1+Yjb0MWsfigLStVqeGEo01vH6qOdJHL3S0S3sGg0VsbGyc7Z0fxtXNUXITZy0CiSkn0UeRleODD86xLLz/wftnz51HCaanp7/0pc/Ljz92bHx8LGjUO/o5lS08qJs3b547f+EnP/npd7/3/bfffof5/vr1G6Emy0tLVLQHwYHt8smnnmJNOHv23MLCwpHlpbheBILg4wMJEZOIL/t8dMBEPy3Y4q8Jz7wJIHpPj5FTi5VTiphNFnciXi9pBqnzUccCvbyOT9LraifuwtBoUhNVqmP0GFDhkVMQp3sSRwFjMxeCDO3BSyBVvAx5FJUKiesbt8msVCs4S+zuwhgYnrHxBgTMZLhJK1f0VbdgeECgT5kyl/XQMraKNff63Q76i4S17JtutEK96yNxiiAnR4rToomJSaxX98V2u0lkZaU8HYyAZCl4r/fWm2/762arTPE0eW5u9qmnTuB3MRfAbTt9OVPv07uSvp+pbzBzio+0taUXa2MqYaKUsnqUcIpe/9Eba2u3EEznFhWzpd/p+zOnT7MboVEbVLm9Tf8j38exCrRrY2MDq37v/fdpMjZMdURS9gMiu96prkY7YRXcAhCQQ4rsuKzHM8iLgncCY/i6FF0EUVjzer+LuBgD66OtIO7sMvSmydlFZQFlZKcSy6DqiIwQ7kJuDHlZxkkrmr5NT4p4yhj05Z7+bS1WvVq9RtM7nR6Z+MdaGfQbCNXJiclmC2PQGwGC1QGBDpUxLC54YhjILlttREJirQxhDD29mhtidaa/9im99z04RsMXItUoLROsdHuNAQZpLojOATDBscHhYYK/cOHS6uoqztLc3MxJJvATx72dHYNmfX398uUrly+vYAQsAufOXTh//iKzu28XbKGCOFdbW/FN5fb4xBjazoTCivFH/+pfnzt/8bnnnkcY3C3aQZiZnn7u2WdOnDiOkVBwZUXvb2XfjDw4ZIgXsj0osEb4fPe73/v2t7+DvdEAOifamygeBLaFWE7T12mCVQAC9bnv3gIGgsS8V/eg/LWv/ypdbX2Uyrq8xu/2+i3WMQ23yDQ8sJKCpvMhu6zSfeAswbXvKRJIZ9RIDClpG61zddEqKR9R3MKNrU3Iav6GF4sjzUeZoPB7GstTk5MMMGpw0MZAf8tNmpvVFC6xpd80otXp6OuSY/oKcnioeJu0iGZL5aX3MeOWMQa7SaTdYQxiqTvQKhi9ZmAG1/3t+x/+8EdhCRTFz0FT0S0UnBXj+9//4Vtvv3v2A9yiC5dXVlB8zAfZpqencHjOnDm9MD9PoOJ1fWW5zfKihxZmZ9fXNy5evEwt0CMVKdhqVGztktRspuMdlSw1t27dOvnUCVJD7AcFBTG1paXlz7zwmRdfeAEJ4gptyn5ASF+sNax1qAe9sba2xpqIwbsFTOFinhkDB+mwFPmOQHuwBEZUg5qFhOwkT6dEZHg+z4bKWZGcIvthb5YEzBApZikkTlnnuDKrnX2nSLT0umJM+6WUI2I8AlBbqpfOs8KwXCpFrr5Ek9DqWUHU+7V3X5jaxYyU6GY2m63NjfQGCoacWrAr5nV2i7hA5y9cfPe991kEMINr166huywFdsqLLBp4U3HRSRdeG3XZz+bWysoVPB/UCD7YALWwnrC2UFdUytHyypfCRaNefDBcr+vXbuSyfQSgj0wax48fe+GFFxaX2I08nItUiAQwCeTEXDf9UxU41JEe4g5j+6H429/8XT50j9qn/NMzzBBnz77PHrxaKVfLJfqOqQ67kqNkju6hrAVMbOqypJ1OSHlB6RP1r6FFiu6OdMglXui0y1IXIF5nchLPQb1aI+AxMwiMHEPLRnlnR1fK6Ef8wKPHlzH4Rq22unrrp2+/f+7iStR0QEB1pqcmX3jujO729XvlYqFaliVsb7emcVzm54m3duJ3JHBo5Z2zAsReP1aDufkFtGFCPyU45m9+Jv+bDqGfu902hzyF3sAAcPrRdVT83XffY+8LE3wZJCFy7dr16DFO8WHYSBw/dpTFBw9qYWF+fHwcA3BnC0h17tz5733vB6j1m2+9/Zvf+I2vfOWLq6trf/rd72Fl1Pj888+/+OKLiwtz3jFrZG/fXr90aQXdwhpZbVZWVlhP/upf/T/QIugvXLjwne/86cWLF3/8459Y5MLi4uKzzz576tTJr3z5CwgJ83hgBNt7/fXXceH+s//sP56fn7twYeXy5evLy/pi0Le+9W34P/XUU6dPnUTao0eXg9Uf//G/e//9swuLi5/73GdpOLh8+TJu3tNPn/nFX/jztJRaWH5pVFsXk5r0w+bm9nvvvfv2228fOXIEMfwSg1mUxG6pQKM8+++DO1c6KavhsxTzpiLpPlBMeqyMDMNYBmt6UvYUTWdZfjDYVTIIAirgFM3AugMti4usUdAbpOPXTk5P1+p73411QJBkVi86IyRN0owgKLQwx9zAlODlJOJ8pNg9wUgzzLokurXtp+WwMcHGpkFldkAtUC/mfjQAj2hhcQF/iC11PDUUAuRAQdEPgMFgnAgIE9JRbowHYrYHGEYwJ52KSMEFRZOoi0SaRq5N9CYuFkaIyT3//LMRjh8/igu3vn6bJQztZJJjhsYYaAKqDwFMsP+sXg6FqakptBY+8VYyJRmoOYEIfilajdng7D333DNsk6gR2dgUbW1sISGd7Y7VV7f9+OARGDLjcOqR0GDkoKAqviOUv/61b5CroPmcrij7wmVnY/02cxQZMNI7VYv6M5mIxFL8iSjR/+KX6uQcSIqUIH1OoIsldDozMlLR0jD1oK7AiIvqY3WgX/o9HGWKsmYz15rG+wraX65MTky9+PJnJ6dnLq1cZQfpOg8KVBp7BuKIaHdXwrfanSoZ9TpNSO9atS9MtzLMElVbIzVyfGLCWwY9Zu09Q/SX4Y7iU1ydjrfDnPruex/gAuGioFK0PYYftrBZXl5cXl56+eUXv/D5V1588QUizz//3JnTp0n0w6S6VhMCBEiZm9M3gfCvnnnmzMLCAjyvXL1K+p/7cz+HZ3X+/HlkgKChB1ErbBJ+8IMfwoGZGxO6fOkSGvbCZ569euXqGz/+MRsJrGt+fv7/9H/8qz/3s18l4Iwh8E/ffOvo0WPyIgcDlrWf/vTNDz54/2u//qt/+T/8S7Oz8+yJ1m7pi9GYMZaAkRw9ehR7v7m2xtadFrkvCj/9yZvs2udmZ1i+WO5e+MzzX/riF1599csvvviZ8YlxdlD/7J/9v+kBmon5tdptOq5Rb9CiZ5559tix45OTugVJn9OTyC/4MoY9l/3w27/731Grul8DoDHANDHly5cutHa2GQ2PCD3Pn+hNpsvhpIlpUnzpBWqqdNTFtWGrdITKJHpTaR4FRKNOs1bQPEQGVTPYRPQ0PoLr2qMuiTETbm/qEVx4QKIppNdjVBhdZoL5hYUvfPELM7Nza2u3bq9vMGDMpvS46g4VyJ5o5D/qBTIytyBMVVkltrBS2NjCqkBJPwvfk+FZn8SkwBR97colmkVRvURMO4je5tbO5Mzs9OwcDFizaREtUIadcouKOyRnZml5WW9YsptU9QsyQhz+Ra6NoNwkyjIlo4vvv//Be+99oIVhaxtiLE6PT09PT0yyGk5glkzqpDBZwhzVDGcghIUPDRF7gzjy+Lbd1vsfnGWKxas5f/4C+/Kx8bGv/fqvvfHjn7z55tvPPnPm85//3NT09ObmDpvRN954Y2lx4Zlnn4HTv/k3/zv6+lf+yl/64INzr7/+Y9xXPCuG4LlnT0cV+HJIu3Ll6vHjJ1iXEAyfFj9qbe3mz7z6ZeZ1aDCDd9/94MLFy35Z8rHJSX1B77vf/T7WjsZ/9atfubl2CyF/8pM32Q2fOHH85372ZxjxZqv91ltvX79+vd1q0Qo2PIj6K7/yi5/73MsIT+fQOuYYtubIw1q0urqKOjHEdD5LJD2Ds0QX2R8a9kmO4n+rb7qRFVrO8LMF0a+jrly+0Nzelq8fWpL1KTFOpdq6SWeukW5EDSX27jIMtMp7A6bvrGrRkCqdTkmw5+AUQaYQxgD3cgnhNajWURxxtBbFhIB+wV8Q82JxWm8UXfj85z/Phoz1kXni+9/7PoNNf4Up0BeaEsRJU3UIqxZQn9cfaoc/tARKUXtP32fXG78p2+502x0MT7M4gPrypYv/4p//oR9Olfno8ZVef2Nre2qXMQwqZXFDXSiIvqKgJCZjsG8zlvYMYQyApQNbYIcmY2ABvH79xqVLl956692333k3DHFmZhqlX1xYQI3wc5i/8W20zHheEIUHC1BXRMBoHNBehpgJG01Fkvfe/+C1197AOP/KX/kP/vS73//2t7/z7LPPfPVnvkJdV66u6vsM584xW7OM0Mx/+Uf/muUPynfefe873/kejf25n/tZ9ic4ZcEck72h1xqijesIw4hwJE6Nzz/3NOsGNLkxxJ5heZnEwb/6V/+aHcIrn3v5l3/5Fy9cuMykRimUhQa+8Jnn1te31je2/uiP/oj9AMWjLvDrX/vVL37x8xMT44w4zcT8Tp48efr0matXr549exbnkm6hd8YaDd2f942pgh5P2QfF3/n7v6d5OSm0Ak4acl+8cK61s8Mw0bWMkGZumYA7miOfRY2rO19QupRarKz+lJTBRHoQKE+5SiGiDyGVDVA1UwKqadVFF1kcqKeMDWxvbJI+GJRwQpgncJlJh2qKDaJeT18fG2Ou1QvsOdq60G2zKaetfwhMRLVTP55GhQ2wjWEU9oWACfF5BFxkfWAZLblAt9bWsqUCL1J7OLZuk1Mz2ANlILSBEVUe9cZszTmGcez4Cbx5gmfxOgJKOPeSFxI20Lraw4T61lvv2C/SRcMjR/Rl0aWlBUZURqnLslgnLZIN8B9MdnfnCPL+Nmh/t9N1K0tvv/3uD37wOjbGfH9j9ebFi5e2NvVrQ1gjvhkODA7SwsIctoF62hhqUGbG0P/Zn/0qBDPT+u05gP7JGNb0ihgEw2g52hg6zz//DCsMNJkxXPLX4o4eWV5iZH742uvnz19cWlp69tmnWXNYAZjd2CJH17F2/fCHr/25n/vqyVMn6Df05PKllX/3J9/+0pe+8MyzT+Nw0lFUND7R+OxnPwdw9t5448csR82dNj02PjFmW1CnMWgh6h7kc9IQ9CpMgbs1jxh36+g7IF0b6X2UAGRxHcX2wxAUXq6COvGQJgtpMTGK7PA2Nzdu39JvfdP1O3pAxQ+mGKgyYNIKEE0hJQhBEWGH3d+2SpHKh36OXMw4R0sZ7k11EwJKLEcSsrZlvZY1OgQWTJPT3xUw8EJF0D0+v1ZCb9Vm3WM1YCJkzWcWtElA4tpGBbkTOUFGph949iMGcRpAV9h5k4iHhs9Jm+nGRkOvh4E8ERnUSu3IiV6ClMrM0tNX8ChoJU6zz/2AWQyDhC0jwKzDnEjT0HuY4LpzCk/I8A0X9LLL+ZlZvQjdq30SLHrYTyXpfZtRdQyUIjoIHoV9UP513YFOoLD5ypNhvJnZkIau1vjJ1w+idOWUf1et1IhrLrQ2eErUxEg8aAJBCSJCs0GcBYE4mIz0im+3MdRVbxxI3Gm3e7rDVWGuZbfU6+pqL7SN+rjE0b3zIj4O8yjrBgrMcAImIb3Kij+/ympdEX2nMUAix1tGOjewKSY370B0YRBT8WTvJkhD9Uon9wlLjgKxdrPFdq1a8+PTRnQIx2gvx4F+wKQ8NT2FDuPaENTQbCyhcR9oHSYLPZibm8FjPnPmNC4KG2KMgRo8twnB86NB8hnEV1fXrqxcY/fCxhR3Yn5u7oMPPvjWt779zjvvonXM5aRjhtRLP+DJ4HSSQj9b4UpM+XjnT585FZzx+7///R9+//s/ePnll/GRMAlWdayFhi3Mz6Hu0HCKI8UA4elNTbH5GWegtaA3xlB66mU44E+rjx5dottu3WJEbqPjTz99Gq+JaYDhYAf/v/3Lf3Xs+FFcuEihCoaeJYX9+rlz5+GPhNHVWoST9etXG61ue7HroToQpwyGkvypm90ZgiYwehq5gZSUgQSHfYDowCX2ssqrVJI13aokRkQUNIqojvKDD0hlhpyHyCSInJS1iyIQdThYqghGlppO9FA7G4YhPAvarcwRnEawi8ddEBou5qV4FEVzv3MAZR8s3Ccy+gRWn6dOnGAngNMybTNIGQmijG9QzM3NMg0zjXz73/9phHfeeY8epiwrGK4grciquBO76tVMUqtiJ1gCOxn2gY16g4mH9W98nA2wViG2N9/93g/Y2LDRv3R5ZXZWrxKkf6Qh6jG5xHQe5gfMOQZndFSkUCm2G/p1yhQyMDOJkaJa8nRxQ+9VSohid8YDe05HkFcTIdNKRUEmMlOjFpbITVlalZQj1gQ3O91dj+p8Mdqtz8Ap/m46gZEPwE1TUFQBUTB7BZ86wUG7nQjELYQC3RsdA4psuFkhEMReu3wG1rDhHB+yUSjiPs3KCpG2P6KNNBBlGh8fwyOK8U5FHwSWYtiuu4S90iwuLr708ktf/OIXn3vuWXx6DDJlCImYZYp97bPPnKGGlZWVf/pP/1kE7IFd2xe+8IVjR5fn52YwZRdJ0gwx0hvEae7kxDgOIPJcunR5fHzi9OnTVEHDmfUX5mfpCsqwbfif/+f/9X/8H/8///yf/2+vvfb6iRMnZmZm4oqcO0xvJKDrPOwCRTQ6+RgEQqHuxN/7nW9GnkdNgBiPbeXypZ3tLalOz3tBaWFiGBG1YWSkc5ASWQFOIclTgn70yGfGTB8oMWCASoWB3KSK3noCSFxdW0MaOgfx4tKq2qnbbRPwcnckYTxJK43/SNGnoklmQIwQFNTLgCgVA9OiKAMUpQ7OC4tM1+TUy612S6lsiEvFip/FYH1vNMYb4xOw0dWl8A3YQHfj0qoujzHS+NnHj59AxeX3N+oxVKrHkuhqmZ4gSHegHwqib+8BnB+cQcRjKxspzSZOX4eCfpJPt0/IJZ3NAB4RkaNHj0QKA4FXiZefX+HB18EP9Du8dcG0jbvjr5DSRRN+mzc0NJKNF7syTnXJE/7q/eKNG6vf/8EP/8W/+KO//Jf/0meef56dAbVDzxisrt70RQX9uCNzD92IABwnpvSQIl2NAFRBV2s0szbDM54Co68rvv1Pf9PJkbsHxb/3zW/qQwh5NDC4XyuXL8oYep2ejQFziMYHcV4ZGK04iucgSxqkhTKlBIISpHOUwH4ZYJaXMVBQP31SwkdIxtDrrd5c7fb65VIF8bRn6OmeNMxwQ8XLxhDC+BqLkvjnlCR9pmiq3TEZg1JdyjMLS2VcTSZBORAqgaVChgdDJaLp7CuDEj8UIeHAjq/e0CVTKOLLn+EohzHE7MUyxngcO3YcS0BZ0ALXMgTW0uvT/OxVMUmMj4U9nX8X7CJCzbBxmpzOHxWuX7/x3e99/w//8P/7H/1H/+dXXvnsxH4/vLIH8ThG2DOjkF2aI5rGeq8xMFWpe/fplPLXvv51OjzNhIYUZdDf3tmmDjK8ipq1VS/gBFkIIFHBiGR1fwSRarpzRF+QROvlfZgTFBwpxRFNTlxNROj1O4yFvBCpKCrZbfqNaGyHxLvXL+kWbIVdEXNX1G4+zBqw1ygyAYiV9vFUJHnwnyS1HKIkJBHF3YSUYsDMDGkRBiAviMRwpaI/yMXg0PKxxhibQCRZ39ikr+l5SqrWzBhYXRFK/pTY6FYFHjm2AShOtbsh5o6o9ocU6A234q5B9brShGazs7nZunhx5Z/+P/9fb7/93urNNXbLNI0pPFE8VPyb//3fvvaj1//wD//Ft779nXq98Wu/9munT52cmpyk0xLF3cGI0GOaH/WTHTFwtKgcEx3DxGxFz8dM5yPZDKruMO0NoZAOd8LMMqQ0wbpFdqTnpXf1pzGiXsI+FKMQF5fwSdQYVY2UT1HF9SHNjrPITJG9EE3wzRApID9NRyeOwhYQJiAobvtRTT6N6xhKD2QsRtkaRIdwiqxmdxjCNXwyQBI/FqM3e29vb+G5+cFyuTq7pX04YUqvuZ/ycyWLRNgqNMZwICVGHjwI2uztCRDlHUwklFEhlFdOR8xgBI1MRrsPir/9279LoTQTJuC4d65eXdEbyFgdtDdlsJEj8YE7RLK20NcAkjChOwEaJyV6IkGpAgbmKamzFMUyYnwkQMTmy1Kt24fM/3KTbt9ClkqppieT5CaxcFG2ODbJnsGsLJKAmZMR0oyAnIjAPyKRkqcTiSwieWJoecSJ0P7IjgFytIgzhOvsW8LT5Grl9s/qUBawAuDs0Q7ffKseO3asriv3+hpGsB2FqhiKpyZF/CChVqWogXe+sbF99eq1/+l/+l+OHz/2hS+8cuLEMTx4vDvGLhHdCw9fZlxHhHRn7xLAHTxgB3L79joKj+epqd800ZPs3dj5sDnxjRld5LCbtA/Kv/5rv06Xa3RDu60NDOTmxjoqB0OILAdAJ6KUSvg4bLN4xMHpgYjnKXkEXnl3Rbr5J9A4pSQrT3JhkexZnSi3PoxTGYVipaYLCENgCf4DrkHM47gnJYdq3Z2SU6YPR4bB2SoSr5obG0NKJlHiDAbpdKCGyDyJeH32hVeXnZnRTw2F42Tee6FWuQE+g8lHD3T2npT9wl4gOMJ5M9o/cmQZaTFdPT7SwCNV/oeF+6F50CCe+bjkiHFrt/ULKZ79A6EhjIGeqaEh5XBUrUxyoFIP7wq+z8CMbj9ewZqqKc/6z7h4wBQ89ErzoA5lUpkoGlo4gqg7jgHozUS8onggEgN5QtY06T4fliPVm9iJOQdO8fk8IUTqCFlEghGI0xwpdQQkUopI1A4FLFyJmPKZ9WiqgwmfrfDkRHoYQQUZB4msaSxLjCAjAUrPcu4MykzYn+CBgppwR+J+YReYQicnx5eW5r785c+fOHEUl6ndbtGs+xaJ6eyhh9wS9tTlJjIcnmB13Yp/vQ2yTcC1wwhUzCOiUS34bXT7ofxrvx4rg/P50EhoQDc2N3rdjuvCBej0/L4Q1enKRWpwGpFgEQQpJcvdYwwpplSla7h0ESDd/gPOhsyPKGPSskNdwNGv9bBpLulNGbEVJh0J642G+PlfxVweKDeDNDjp8BCqzEjno5KbmH9CIsrISCfuvhUQkokTFd/e3tZFwnodipCN3DgyHloJfD+I4+zsrJ/GlUTBczdUVyAlPATsW9Fd4T7QXDo+nt7fih8/Pq7fhE4UHwLJ/nCDeWISyOYaMkRXd/VbQS00Ja63qGdNRuez52H3UZebSl5oSIi3F+F+pU6HwJ+ptjxVB4tjEMnje7FH0A9FCJFORhCDATMED3kgU8z8fUiCRHHRfljd5nd/uFcT9wEysBSoJQbnebpO98ddhRmWkBjmFuEjI+eTGna/rJgKWCIIbBXG9P680Vtv98LHEfauEM+7Cc9kKtNF3fOQQVbBKFifos+DQ7DaFcq/+iu/Aom9jVAnUgt4vOvrt9mlcgqYlYmEtemQITNBw6UjGomuMiHSsxOq86kTg1jVGJpsM0BBayQDJyxwqh3jrnDKWshkbGELY3GfQfC2SWkJMMyPdyKWJpDORRkhMzwLJL5ZM6FBFo6kcCQlHgxGnosXLiAtcZWkRb61BAPgUYnvM2i5m5+b11MymsNIMCygZbUQclwtR09frEohE+5BQ4496fcZaLOf6fEqdkfuPYOao55MQd33MQLF47bQblCFLrKXGvX6xPj4JB7reGO8wUZON+/Z50xNTeLExjcZtHOj12lLGk9pDNEUEsfdoON6bD2skSClZl2BYCBL8TAqSakRH4VInT6kFG0MekoJBCVI5x49RxTNiFHOXC4nhuJG3m6GIHG8C0QgYSIkwfaEUUR9pLpo8hXR+Faz2e/2tAzTpaYLLy5noYIkkpQH0qJ1e2CeQwwHymEvUiEDbh8SgKt9ZGHkjlM6/ejBXQiT1Noc6mP1Debq52LUKzoATmIAhklp7Ea7ZIjyr/7qr5oZy4kYUZZUBnjt1lpb3yughPYuDjnMNnHNq9HzQtHqUUCFHY4mQklNdxAKZFGbGq5jFzKMmVlRiq9/pNBX5vX9l04Ho4hS434cA7H3alIGaDwdAJ1laeonJcSZuwldjpQgFs8MSOBPbCCmO1xM5pIic0anqe+jI5i+oFCrI7/WLeRlqoGFv3YIOwrH1mvGj9z4eYJsMhLDOOgTGXI5hmE3UjmV0nSwX3feA+rKRxR08Gh/vBBjEf2TdZRC6K1GKx0JQZRA/6v7vJmIlOiCgLnqH8QXNTOvwB/l4oBQHfSqhb52fIVyoVgplGoFVnkGT+xDOIpzouG0qJrxYFKueHxcAzLwH1OolMhBNZGuAbaMXr3gqcpVxsuebjJY9EIP+3BD2UnrtiIpElh6SNWJp1ipsebIMeqTeIJSEoikuIl15vuzcJJcOlWm4tE8ndg1yrhRTr9XS5lqtT42NsYaPDk1MTY+Rqdk+fhEapZ9G/EBLquZhgCJugiDx40aDZoFoi9Fpj65R8Bxtcmk8FgixiT1c1Kwu4asJXcJYiC1uhOpi5Wng9l5RKWAen5Jg6EHdDSsos/6EGozl9qIVOzNiKIBCuiGFyro/TVqi4Ho8X09xE+bLJOLRfvMPIEKYZsSzUvKKpVVsQhheSEa/NRbniBjwjVfxaSqOsMYBtJ8F3BhcxUnN07nqS7xUt8rNQhSyGCihChhIjPx+ciJIDonpNap/RKXmugYOlgPVbAaNBraKqQC7l1TRS8N+eT1KCg32O4FySKIwncNZuJgqNbHL2TIZf14gWbf0WnuUXWJ49npcOiSU4A4ThfyvnW+Bj1C+Zd++RdJ8JceEnW3WO70S+tbnR7jrZu/2EOvTCj1PTkbelazjOeADFYP7MQcWUYUNIFTfzwg4k5xvkxLRCLolyoEPVPniZbawwRh2sUZikUIUXWxTG9v0oojp7DTbXe7g25HfrdqLhXZJakCIzrI+ioJFFS7QG5EKIIeZ31kzTWIQ2GWAvRpX2LkxZEkKpqbm52fm5v2z5nB7vq1azhJjbrfgy2KtIGGCY3U1xJK5R49WyrPzS9wUq2U9AVv1bgnuOEHATXQXf1oQzSLXr93GHbAfkE0sdJkoJ/N3EPsmtxvHilPrO7IoIhk/asXPK0rZEtEBFGa1lQjn1ki5e1w5Cf6dC2iyctq1nTUJMSyjBEoNQscMhESVzNObTBs6LEIgJQYGE4PKWEUyKTk6Ik9Be+JYUfsxmg1GhW7dl58OehRSF9rUc8Gpeo11AAX3yUnJ+lcQ/bIQ+rrJyCooxOicURiwPcNee4IE43RMGhkCYyxTcgjzYdiHCHpF3pdjt5Mar7uF8u9Ulkl2VFodxHvq+/7VLZmx8baIB+sxK4T35iIVwWtIbJL9iqQVvq9Urdb6HQH7f6gPeh3qKvEPCpWzKdd3GrNGGXNG9ItzdN9VUIzNOEG5IIDUahOx7MFwdP8MMs9EtqozswRuTqmDlNr1eAs3fTKwQwaDb21bmFBr2r02yUaeka4rFuBkPEPnRY7f8khHu6y2BKFmrWcsvdXUlodH10ollXpkxKkhPLk8ef1KyTqd42fp3w9/JaClFZ6m07JHWFSHu2f8i/9yi+jDZk9WDHQ3l53a+NWr9PSLk/ajBkwkJHrD/25VipQVkggIyEo37ziGFaYA7UwIq4DRbx7LCpQueLS18xOZRFoY7vtpyb17KSeFoHCiloYm5SblEN8DZ+4giyRiIsMEekBTpGTfMUlWsqd1e/JHvUremcAH36ycrZaLWOS165efe+dd65fv7q9ta1n8bxdY+2AR7PZVDOyu9Twju82LCwsQlmtYDDUwSAeho8UsAE0S6MkFePTA7ab5kFC+Rd/GWMoxkuFrOJod3/Q62xvrPV00y0sIdUZ9blKhrFi/8nGIKvQDhurIGQ04hdm4Jl1CBRCRaV7scPGAGQGGIO+gmATFBMtCzJUAgxaLW8UCvoenL1xKS5scmPI5/5AJEoKjpZhjyUAElPMNCrlcq7ep8UilvD000/PxIsp/HPbHNkw9PzT+Wfff/+1H3z/6tWrExPj9pr0XCoLBSX1NofMGNj4kNLrKS5jqLJhoNv3jsdheLCQDVQW7iB4oPB3/uv/Ch2qVuraF4o3PPWtlMuXLzOx2UkoDPQDlixGuqZJjIDiEfJZNA6Zex+GkwOllTWJIAV5LyiJ5vZYcwaDVqflhjHld1AyPtFr2MsN03XKKmvF9rYe2+50t3vdXqfT9xcJxWXpxFGqybUZRJw8IuHnRLrrl1mSIAFkHrKfxCjAp7OIRjrKnS4WyU3SPX/HB/reZrXSajZv31y7rddTr8zM6PfoMQcKI93m9g6WgKxiUK+zXHQ6bWKfe+VLExON8fFarRqsDvFYoPhf2RgqI8agdaHTuXR5pdls4aXgowz0Ywg9fALm/U6xz4ntwK55aJ7+0GvrGWqiE7OXC0QiHnPK0jriAjYFGwOu26DfbPmFZegoat7uyBhkbfa95HVU4L2zo3eMtjt6VZ4uKIXT1B8ceep4VJZDi5xUeWgMqlNK7mwkkQEKyrXSo/WREQ8+BGDvVUjfRDUn3SnDGMgicY49w+Q4i2q3093Z3v7Rj16bnZufn1vAJUI0CLb1urFev9ONK7Csb512q1ypfeFLr/prn41a/X6f9jnEI0Dx7/ydv6sxtrcrh7pU6uqbW53rV6+1mzuFAptaXczEUd+qLPbGi4WjG4Ojm6n0AWBwsVq4VC1uDSrdLTRPX9WwXfW6eiUObga+CUdHEErGcOz4MVHIxGRpinq+lwcmg7KNodS5KYhK1kBt2AF5QS/tl1GILJYTVNkv+FcZsvQRhfH07OMR9Lar5g7m0m424/WSxXJV62ev19za7PX73V5fv+gzPsF0021uD4qVwtLzk2ON2Yna2KExPE7AGLwy+I2F2q5iDFoYOtevXWOMWRQK8a3GXn+ztNAbLxSObCgcGPqXagMbQ723iXnWatpdoI5oJcaAruIo2RL8PXAbw9Fjx8ISgBV1aAwcMgux6g8RKbh9+tJTlApjUKZTSNP8rq/nK9NmkoCpVMNc9AB9h47C/9la35iem5+dW2BqYefDctLa2sIY6DytC2Nj5XKt1R0UKoXSmcV6rTzeqNQeg99RPkSO4t/+O38bY2Dq0u01b6O78nI7V2Nl6GMMusHFVLc+mO81+oXl9eLyAf7Qcu9yvXepXtoeTA1uI0zVXjX6h/ZjDKGLOC2GL1AOCkePamWIzZTUU/O6Z3p9i0NQjlU31BfAJEW8MqS4EfGg1Bww0HdQHZcnhQEC+OPi4D9CpTVBr0JsXVu5MrewuLC4XK7WbAz99raMod3v1arVOvTVsWZpYtAoVF9dL5RTRYd4fGA/XT5DXMJhhLLAyDMFohQQEO0N8AtQkKRNB4dUc0Gabi3k6Al74IuWLBTM+7q+pEtM7EFiEyJYtohJTuigVMBXMpt9oBaZnnhWmiIuICn4J1f3xsVOt599p803obWj8W1RJRIkk2YTyNyF0V8yRNGyccKuEs9DPI5IxqCh9QB62LTt1Q7XYHCTXqR0px4YQgiqSwKORKylYZ6K8R9FbAXRBMcMpUZy3j4jMcuwJxek4tFmk0SvAFVv3ecYtE53KkcFwekZTKKIuTnJDA/D4xfyewI6ZTKWG67rqJkm6OYyjormxYoudHqsDxSlcqFSG1Rrg2JM/FoW7KIMfC8reU3eNiQgEs2QiJ6UgcRULLWStoQSm8OuQH6oKPRBQzxqNOSHqSuk0Zr2WRVqoFqtlavx7QWR4KvpZ6D0A3OwQwqtHX5KA0cq3CyIq6QPeuW7vJrhEJ840uRqg7hDzZM9MJSRbbf8DqqHC+pgf2ofP0mUafYQIRVI51b5DPvLN6TfzWoP5zswwlicoQ5xdoE820uQ5KT54uqTKKqsUZ6HeIxQ8syoa4tSP82s1nePKNrT7+naIkuFnuuAMC5EHijKxUK1VKj5SwOaeYFSmbWtYxKXmZgFAdnIZ3aPZSyjFBzPTgy1xRN9nuFm0uIRR99NjvyoawTBn7lDixC5fd2a14LjPlMBv2PLrymQPCEn+4R+TU9wYeGVXrnWK5Z73kIc4jGExjIpAogRlzZ4mOUZS4c0tNKOgclCUQ4qYGtSbemuvzmppSKHtDByhXBR9Kk8K3cI7w+xS6mEcOi1Q2IGj52Cy/O5BxSEt4ul0xxRreDTlA+l4+6uoWwZEgd5W+rIOHexw/CYBa0IWhQYTQWNpQaLDE+XKJ6u5tsgpKePyh76vUL8yjKn1jOpms22JGF8NwBJCUgmlRSVIcuGiRFKb5crcQhLyAIaGtlkBaJsdIK5mouFiHSg9SUtj66Wg7mxdsEIalN5+lAuWXr00ZNK7BaUfIjHEDKDfJgZpqQUBgahC4m+mglR2l5bUQ4Otree9auCnqJEnv2lTcVCt1Ts6YluGWpobhasg5rptfvva8+hdinV2XBVuoxDlpFC2fe8okVuouA2+8lTzQc6kxGNtFq9AbF6TiuNxDA7srAGds7uM5mGCPSEu78hKJkxjB5BrTwMj1/QEDqWPjTMGUKNNNImQCGMyDw4xPojywyJpOWq1YmZcmfIRBcZmY76ONKOYTwV8nke2QMSpbZRtakcuQOkK9k02QkHYrHOxn9GYAoRhZQh6CEeL2hu06cHyFpnbS/qVTme30oDTY/FKrNbpVao1HXp8yCBwujhvJK+XqxH/kv6YqiuZtZq8a0gSJDLVzerttOB1wo0OAVy4UMztHpo3lajQsWJyMdiqaHRtKws01KlI9B5lpKvEgHdbuM0rpnGgkWgBJ0jAVhCEUirhPpMq0qsD9qaOaGiAvomRlRyiMcLxb/73/w3HimNNZ/ENV697i39ZuhOp9Vu+edncFN2CnPtQrE5ttOa2E6lDwDlZqXUrFY7g5n2TXztclG/gYtwKLd/Aba3vdPEWyPoR2hb+v2eZ57R72wHQokh1jScaXYYQ8Slmj6SgOayKzGxUiEDztaFoDjNIb6GjErqnN6X0e92eu1mp9O5tbrqn76dK9frg2KJndbWxkZPvzDfrTVqY+ONUqW23S53CqXmSX3R7xCPG4r/9d/VU6t6nCBmvFJ5aAxNjEEPZXYxhsGgVZrfblavXi1evZIp1gFg7kh7/kh7vNGeaa+hq/o2qSZ71oQBWoWG7SRj6GEMTWTrJmNAL+MYkTwlVJk2ZulWd20yRBDPL0EQRxBkYQxx5DRHTByi1XPpgoyhhTG0b9+8OTE1PTU9W6plxrC+iTFgsfWx+vjEeKla32pXWu3K2+8u9/R9jUM8Xgj/1hvA5OpKW6QAqIWnTA0+psJeUxMuW9RdyvHQIUmQRV+OkCIikXwmrVhoj7bRks8yKEvEmqpBqOYogiGRyPUJTeKoxJRibuYSFZOnDhBze1yuWcX9qUhYh4p7my92DpJWPQmRyLJKUu1yqXQRLKc/xGOHbH5iuIZDZGuwQcgFDujruqGF1oWDhNTID2JkWpdEcOZQhhDYercLJkuIlKxsVmYXSQYrMiGd0dz4BpNVOUdeOK8nSZP1zl7+ttjIU5+O7PMP8bihJO/bLwZN+8Eek6J0IKwh1gViUJGETmVqdWDIlMVKiBD9nt4lqbfu2yIwEhJFZAlZKZInY11FOn8aMie7PaBUKZYrSZcVrMsqqMldz3/gjNny0X6OaQrQPXB2xmkvrKM/xVA8ZC+6nEoXkYKEcIQBnNWXlks0vv+QrMeSKnKIxw/763Y+XDHmjxTSMVWraKSE1ibskgZj0GEk7U5pEw0g647c+0EUCvtJcDSd8xEhrFOXgFMCcN258F5uUs4hHjswB+oQOuWJTEOlUyNmuCCNF0we9FDKrShVmclDsNBANrJxIxzF0jyradwPnOo+YE/vnagMCCWOfjuOXzPQV7pWOMrqQaY+i1t48140YOvZXyAeKRzJJSXIVLdbn+KKqBO8gIhKhKqxp0vQbKy9lHGo6IowctKf/W6/zcqrdymVGsXqRLE2njE7xOMFu+bDeTeB0Yr5loi1QmMeVnPQ4yiv2q6LrCK0ztVLAL2IMjPcRB5x+zWi1x8QOceQX3lwEJuUlUGkRjofAYk2DJWN+k0WIcE1qMo8WRKkZGBBfaYXXRV6ektnsV924iEeQ+jNFATrFGMfwTkaXy3rmTawg2bO07Tn7IODJJEpWA+lxyEHAjHTlivaJsgdsTdiqZmUbTlSR46wUJbjAV0SStejEkjMI4FoZ458jnDBSMtLWC6n6jSJJ0mVHpQwoCESUv3JMeyhUuwTgtEhHjegQ9IqQUOoEHrAiGnQ9O0ezb0MaVz1JxrkBwQq7ekNlZqWqQn/yEH7e+3gVTn/0jMLIk1zE6S5BKlqrtaKRCBbFwdcg5AIyHCcY7Q6R+RGl9BHZX+xKZ4q9wqpPbJtVgQqXrAz5idtEclXgynhrGQUulpc7ncPv9zz2CImS6lVgkbNw5edeUA9ySp+4MYQdcgOkyZlsMbvqT0U0fJHIMk67JBHDfO4A6IYgWtKSEkGRFp6HFGBrIdSYX/YYnUJSTSywJQpybIOlf3s5nyIxwfM+wqomeZhDSPrPXtB/aJrWe8G6nS7W6XBTrXQqpCezbkHB3ae5UG9PGhUBtXyQL/bY82UaxQ3wfQzmaYkteuf8PHjQxW5Qp6/5cFkED/rojYcFf1cdNhJUs9ML12FkMclCcX9cAqJ9oR06poBPPo4jpX8pciFQafdoaBu5UMmeyharEq1XKXuQbnShxvFRH6IxxFDNzqzhezE+ifoPOV4bj5Y6IXeg67e3Jem1NBeCRCIBWAUkjGCizhk6RY4LCASfRoRf+ZNzCvIkBLT/y4kAkuVB6XEXkHV6sOsMxnSP0jVHeJxg+cwxge/hNnQ059HVM8nKfhqpgZalwnjWXy5MAeHUr9V667X+xvlUq/EXlOiIJJ88Hh+1ApGEgtFKDr+Cc66Xs8aKihXRNtttcEXOvWCeDn6Az9d6qB8UtRSXT0OBaWVqsCQahtaH8iWgrsbtDz4Jp1vtIUhOJkEvWe7p68l6YrvoNftaQuhi0jQI3uVNuj1/YfG8Jii+Lf+1m8x3tVqvVKtxiUXlKPX623cvt1qbrc7egRN1/DlPekLaBtbpfVNqVPSAVuOOSnBuot6xHhLZcmwNif4sql8jkq1Jn2CWi8o0++0oUE43fXqZr26XS136xak3+3ghuCMyBpLZXaot26tdv0yvVars73dbLe7n//y5xJ36ytiySYwDn2bx5VJ8xWSqIYklR1IXEkuqZUrFc+0X7D0als0VwTDTE6QsNNqNneaF89fmJ9fmJ9frNT84uFBd3Nrq4+o7XZtbHxsYrJSrffaGGi1WTzZ7pfbfXqhMj7WwEamqgc7xRziflD8m3/zr9sY9EY9X3pBk9CifnNzq9naaba3W+0mnjDGUPOlJ1/swe9lhtRkjYpYNbR6oHXSr6Ex6OqTNyTJGYt5W8ZQqtQaE9Vao9TvF7tt0tuFUrff7vc77eZmt7nJpI65IAjbAn+zTXsBva2+37t9+6bfLSlj2NluddrdL7z6iutFa6WyQNeeZF33YQzaKkmnIxcD0lKQ67uSxNYdQxheb1C6mlzsMVtgCjs7l85fmJtfWFhcLFdrunSlp823dI2p1aqNj49NTlUrtUGryybiyOnnW4PKZq9YqjZmZyYb9fryeMecD/FJovi3/9ZfY5ArFVaGOgs9443CMYIbtzZarZ1Or9nuNdn3aUofxFtyu7reU8RyauinNTwWAKmUroLKVPCpUEKKpd8tD4+mjzJzXiwP9A6hGkwGpal+aQZNw8WYmyxPjBU31i7furHSbjdZpga9Tr/b1M4Yc/CdXqx0fX1NN6N7fSx1Y2O73e586dVXbAJUIR11fRLJz9harHTRLBlARKIITeU04iSixIrJnCELs5YlKM0wOzmUbpKMod/pdpptlobz58+zMOi3F7wyIOTm9g78O+1WozE+wcpQq3ax7VL56PETY2Nj1XoNw6DDaWDF14wP8clCWpLGmXGPfYPPUYYIAet7SjCdj0Mqa5m8DtTJER2cYTJOU0YCLPWOsEKpXqxODcrjg2K9WG7UauPVSqNYlPPt9cRKGVwE12zNDPUMSZ0l5MIrS6qawh4kESyEqMJiRoLTHTJjcm27kNJTbpaUHfN0ZelDSekD29KC1K+VCmOVQr3UrxS6+pLRYfikg5wI3cuSg+Alode1wjGCUjtdZe3h2XuEdQNAv9fmp3+YQuPmERMqq4H2jBRXeolz4p2+X+bO5NwflIjp93YKg0pZz4eWC5XxyYXZxTPPPPfyq19+5QuvvNho1DRT1mulKmtAv1Rk94xwg/QckHe8PWZbNqNIJVOIDbSC/RqrXcLQpG0+0n61Tl8nIF3eDiBOa2VnybCdZ8BQLiE0wVqAZ1wXVbdIpzWPSCrHDbXP23fZkCwY/nSF+s0PxiqovyyRQqr3MDwmIZZnxaVY0qEY2jSLheJkQ27aIeTyeEytRS4ahYJhgCjHyAW2COWibOVSYXNz49KllfWNjdm5uXqj7nxrE8RWNjEbQuzR6WBIPOp33YkioIpdtakSwX4h5FaIcnk8S09wSmaGgmgSsipcn6G+5KhEYHmVJYbuywii0KW5w/C4hNjyAp1oltUoeQw99WpOLuvxS1+tVCJBZgPxyBVJwXoCUTkG2uqQzcjSBRRAqcSlHPr50Gq5sHZz9Uev//jNN9996qmTU5NTzN1dZlMqYNNRgZfZqg4xVQ16Y42NwTUGP8WjToO4GqT0zKCS/ml61rRt2UjxFdRh7mhcDVfQG/vMHqSkdEaFWZ1RihoVV6qWB+KmTZYZNN7OEwH0pFfNw/DYBBuDxy1GibgXAztODKHv+qICjF68gQJo9FEN6WKodh4SYuClqSiu1I40lFzPUWsmt7vVaW/tbK/1O+v18k6hu/bWj79z9coH3daGH+3U+xiRBhaU18sthahVB7GQb6YLo/AnpnpCLFfMEUJaYfVNidbRnMq5IzcW9mCUhqM6Ib2DAw4ZF44O0Q3IolMlIw823RONimfBTyxVsK6Mx2F4rILGNsGTlT9DkzVc6UzK7c+k5Vm6AJlDUtkEZaSIuPLhy51KN2e0pdPptAb9dqXYG/Saa6tXWtsbJKJIaTq3MOJrTooq0f9em5ylVOfuQi6rZLSYmbQJcar83UDvc3Bqmgi2KdRYaUmYhGFU6S6ERLLTrKyKBwcx2SXIIR4jlH/hF34Bb0I/2FqpMiMyd5HKjL69vc1cbr0cDNgK93VD2pdGUUJ8JP9oszWNAWbGzOJJiSKdYMWwGZCEVlCI9EKh1drZ2drotjcqhe1KcbtS3u40b21v3Oi0tvDBNDN3e8Ven03u0F7ZuONHdfWDvHCJX3nrdnunTp+AZa6+uyFZAtbwIWIFEMVIVk6Zjp7EEVf33631SrdKO11Q+7rC2tqtycnJqZlp+lG1FgqdVoeexK+rVquNWq1SLvd8i2ZicsLvYBIfih/iMYE0jSGJ0fUIxgfnCsRH5sAhEt2uskIwzeMch3wT03TQJKurRnoWD78onlX1ZSi9mEYOTSJ0MVmg9jNJO4OhlwY8FKWYyuQ5SL4zcQhliyAhTkE6TykcxWOYPhJXvl2jTKAce89zRHGJrBZF2iEeD+ghi2w61KA7yU4KydVSMW4wM5l5Lyj9FVTEp1F2xAD4ZB7UY/3eNeMnmK13I6Yvyvf2k6fVaqleL9YbhUatWK9SZbcwUPASpLKliu5F+UorQskrZy5l+XJN0jYiTLRsRHLNCznl31u2BK12modBrAYgchAq0iMOzCS1SxFLTWI0MJUxDUyIKN23SwiKhn2ytKojY8uvAnxaSD51YTm++GCWh3g84JHLhitXqIC0SjrMiOHqxw71jsFT5ihSsmGWmupVXncn/ByGrEO1kSiFiQ2wyV3CeS5IqvbdRX0rDCIRxM0NbRaSpKk+0lQZKqvlBAP0ZC17RpPVBtHvlVAV7QdJYPPO44HINQvlEWiYpXaQuaZcZaolSnfj+denykcLY/oIykM8BmCA9KBAt6PJLpvv0sgGckXy+AuQxFgaGu9ITwV2QZzIwhiwI0+U3maIra4SWUkwElwjzoJZxtcmo8p8U02WEPlmiORWcVtWqB8ZwxTzE0tJr70MXJSyF1ldQ0QKXTF6GogTEqM+iSdFlt3Z6MhXEKzjQJVnZBByCLHiQ3wyykN84mAwuoYGkyFlM9zTOx7KBM15hUJVP1JcZfQwG041tBpWMtnVdvsDPzUtZEpvaJDFXc7S0Ab0qgqigO1ui7LUiQpVdNtNqoTq6md3pXGhLrITXC30pYyrZk2j/nj/JZVJtwRrnLK0CAREG3mGc4anOUwihNTwiMVECq66CZ7QVRHmxMyfjMSwkqsMlakCL6NpHQiGLjugIrwpuWeyMfVT/ItCq2JwO8QnDk9Rnvz1qeGNKUza5XyrEZFI3w2d75naNPgZXcRBnI4iT5cmqmal+VQpPs2givnYQ8a8GtE7AdluDnvO9vA3VEmSKOFu8b3shJEURyWapTbbJLrrjWCIp0gidojHB6VOp423xMDI72W60lOczOQD9qqAIcSdgo4R1aBGiCEu6P27nv7ToDLhQQw8OyaEojFHaoL0zpXToCELLp7NoZGuZKxliSZG9TWJpjmVjWeXpStufYleUuBNZVCKAfNRSSLOOhhv5otTQDyYZySjIGlXqra8vSJHqKlLvZGBiqX9fiKr22kT0ZpQ8bd/dMuc0lqFqVlMtOaxtPpy8yEeAzCaGqFO1w5D0qwhOJVzsH8mpdFRJYYGjihhgooZ6TxRCsRTnhG5Iwhe5hoGkAVSsAEtVpaIonxKMf34XSD45+A0kM7vQBLiDuRZfIYoOTMLqNUpqha0KdKeQN6Xs3xm8RwkbFzdgqFtIFgf4vGC5lW7QzHa/BM0kGQwMwseQ0MFpAR+ANlUmaIkDMmyOCAOTVKbjBi+kZXDWbE1FZkRhQAxBbHLpXFxpXfTUw+pkLEnJaoI5CkQSEENL0X7ACpLnWApYKGtheRKK4ZIYFjRQ1zx4GNqvowi2YF2O7pzpy+yIrD3NrKXTw/U8Cc08K+x0sOjHpPQjzQ+/iTFIUtE8+LaOKrGmZQjO+4ygxzKc+4oIiWycpASxVWbt7CRgpZaV32roOQnAAnkRqmgVtouQJ9iu9RdwAjDW7sDqotjGH8eymXsVs/qUS5jkqSQQquXJI7mFCn9aHUKMZMoPxdSn872ds1D8OkIGdT7T1wAGhx58MYwQyOmcbIxjAD90yydJYZCfih20yuep4wi1ISIKRQkXehUqJd10bSGaQKj6S6UYFXchUgxvzsRBClYHu1nHFLBQNTjq09SEmIpGKOUESNvlMAR8/iUYaTHnzjEgMjNJWjy1dAx0bKOC/7OfZ/xLFfKmAXLQmiRiAR5CZwyqcIFWpI80EJkR8oogpIsIpyKXaY64Y1AIuXTw9vJeDInRVKpFEETdkW/+FbTe5BIjrndSPzipFqFqlYfASl7oKsEGaI8R8cjQOIXF1haslyjJSGFFUO3ySsKsXR412BiBcMd7YaRJLF0w5uKDv4dzoe4TzCg6KR+TEn6FeOSPrzyZ3OAh9axlBi6mWnm8CSOH4qkIHuRmNyJIbFucEm17KGzcJCUsoJnhqSDHwFhSdkx1+Z7I4hiDxC9FeqvQ1iXUjJRQ+5A3rJDfOJA+QjMw2hZxGMi92OYaJzdcXzpbDbUdC6dTbM+YxlP4yQE04D5COnc4DQmV9TD3PJAaVim53Uog/8hF0T05UpNE3NU5C8UlJvtjn7bDZVjvtY7a/rpGSYFiCNopmdZiLmfegNKzVYAEMKwFkGip3YVtBSwnOjXRY2K04hwpGzEAetMrVqvlmtVvUtBX+2XiWY+Fe1l9p+YnGyMjetb/96UpG1CWi+jVz49SDryBAZrl67blHy3NaVzLiuwMnPUtlCDKOwZPZ9IiUeDjWQXRLnPsJOirBG4FrTfbg9sEifL1Wzu3Fy7eWN1td/TN7CpFqUcGxtrNBphkNSQefYKUjxviFULB8zGehghsiii05Tlikdo8kQztG+TwdYkc4LFnizYNZut9fWNnZ2mm1fsdjqQTU1NjU/omW26yKJGh1iyQzxOiNk9KWfEQ1M48iF10MBbK5REYoyhCoQNOG7dzSCzyDYGoh3BnpTgSJAtJDVR2eATkm3vbN+4cWP1xg3SoaW2ShljGB8bH8enZ6K1JeCTeOHIrgjRAvtVzMP5dzjzLKt7WEKGnEa/ReKXpDk1iiSlD0sAxCMxO7d5lErdbnd9Y32nuaPG+5SM6ZkZTBd6WmSmATX1EI8PQumZrhwK+naBhwx3BUdE90u132X50KsddRHduqJAOavrLkiLDYYaUiogHln5+BNXxRkkRXYqP0KKKCWL4mTg2iBkMKEwuZMzk43xMZwgvWzGlbospYrIyBEVh4HCyMwt2WUHUZEQiVmu0kdskw+9A0Qxqh/R+6AHeVmgmvS+qf7W1vbazVtb29sIVqlWpqenJ6emMFucK7iT6Ap0U9/96hnoEJ80YlAAOqfZ1yG0gE+dSs8ciGZqos+ImskuqEBM5YbJ9yEDrmWYFXEfpXo6GJEYIAZvhCFu972C/ind9aqMiaXTMeXfB/KKgDlERJwibj5xHqf3gkjl4PU7nQ6ajrSYBzaQ2YpI8t5xX2U9dYjHADGA8SR+uOnx7UU2ssQLGkJPyZ1uV2Pr+dFBGuex1aBSCnhwOXZZYVhbNMd7As43nVKJkfmVlMgiWROwX5anyRhtl+kJZGlfWyuPjdUnJyegvrKycvnixbFao1ataQ+eXc9NQGl1D5GKsh2zmIewrBiC6QwnSu0NJwmx6CkUysUB0zlrjRnfsbgFN5cWiBX1sk2oqVVNLFcrxUq52+uy4dnY3Oz1+7Tfa0K6d+lwiI+H0SGwQt9P2AMSwilBe0wwgoxkGA1kQ3hviMohgSRzHfK6a+5uOZRiEIuUKIJmhszIEqxMPHKfNBMzNc2lExsf85ATuBggnnUIIeXpD0TtJgqGQ0RKQOQKjjlLZpmdpiXiEI8XmP08e2rYMjjBzjr5HkgioQGchN+U8jJEwTwS2hnLRSDPCrjQcD1xriqNaHqswTCldIhNrL0iplUWA71LWKmST3Uxz5pxiKpgY7DJkBMcU2Auj6/7aHPkR1H8Vhq9pIlcQ6fOGsVIg1NC1i3EETWWHcCJFjbTaFVylGUCCkus6wRuGqWDwSE+eUhLPHzJxY7BCWgIIUGxWM/jIehIB6EWHkWdZogxBuYZwMmRU0QMAhWwCqC7DsFX13GdLiaOWpNtdZGiDG3Z5S9NTI6NT4zFxjhqwtdiC6Hb08OgwiGgArF+wQ9O71JAsTX/WF2UhAwSQwYkEYYQMU0jhthdI1wdjnom3I+F+7lwPcTdx6nUTRqvU0T6+p0GfSHK11XNcNDptOFEtqv7tAT6wR32GAWJpOCZT4MYg/4hAYwy0dTcbrWazSbGkBMEuwwxbiNI6SOwRiVLGI1zFiEsAQS99E5hDyIzQ0pUqgq6uFhVyroVVtcjGGmeTxZRztjm7RtytE6m9WokeYisXN4LIOjMKcUlBRzCgIEFTKfovy3bFqx/+MnyVExRTSgQm41AHEuIO4wp6dOBYW88LshHTAi7+Chg6JjLmNfKv/ALf57x8XSLgolfDDPTHdntdrPbbqMKVEyqCaTxStE9CnpH/kCOWAo4OqK4kyUkJbyx1pGkyIKPOLnGkIw5VvPsQNtNmIyNje3sNG/f2mi3OpPT0+VqbWxiptvr77RatVrjmWefe+nlz3b7Xa8KWmdQfUukOwWlciUqk9BSzD1j6a5jTqE78qvIg0KvX9RdSD+nDQ0pcGK/DB+xtS+kjbbuR8jcNW0OCsi6MDv/3Geef/lzr8zOzalzu93xiQmk0foHJ21G4KjW0j6WtEajwcomGQ7x0SDlicuhEVfv6nDPcCeYsBh+IsXfSj9WUq1UdW0HyDHvD9qtdls/SLPNvzx2HGk9A4HL7vHUBShdSZQ2hRyWJ46jUG2iFyIeyCxBgCO5/iy2O22MkFM97lCtjmMMWzvrt253O93lI0dwiian57AWpEMdJyYm62ONjc3bUY14qQW2NLJlEkrHDvRmWHtjJlSK/0iWVDIE368AljSiQatbH7hqMfcLyW5JkQ1iRzJektvder0+Pj7Okru1vUnO1NT0zs72rVu36KowIlVK37Y709NT8/NzEJvVpwA00Mc4ezygMSppGkSs0QG7JzyEu5qBaqHpDKJ+xgomjFN8z5PZHEVDOba3t7GGTqvVabc0jKElDKbffRqqhnLAy2JIjjgCK2TaiKuUlYuUINCy00mv5SA5EokGZdsghYkTedD+55/7zIsvvHTs2PFyVb+W0txpahb3uoZ0qHG1KmcsGOYgJRI1HSC8PpMwABniqIhWBrv1llYzgRooKEXtknhKTs1RjBAuEpbJroFUlrTIjFcyE6N/L128+IMffI/6p6anGo2619f+1tYOxrC4uDAxMUEVnwrQHh/j7PEAI4SaeR33cKXxujc0RrubgSKxYWAQZQyakIt6WM3GUMEvYs+3vr7OroJxRutCt9wf0gfmRGuY9SsXwhVEPNHn5oFuGYrn0qhcAon8i7WNodVqkYKikEgFR48dP3ny5NzcgiosFKV5ocVoor+RzKomDuakgwzAJcU1IAdF52ilzyWAxUgazkc4WbZVzsIYgkoFkiFF0fggF0LgArIivVaZTK2fsDLZxQsXvve9P2WJW1hamJycUBnfqJ6ZmV5cXCRFzD8NUMN0jLPHAx7rh2EMXRtDp/g3/9bfMIdB5uuXu/JTOjdv3mS5l7oN+nrVCbWKhYYa1XKdSLLrShHDHDIFSKSUyLXZFYuQgwgOWegRWeLs4nHEEgDp01NTcoearfHxyamZmcbYGDWoJqu4yVULGl6rVc2MNDFUrv03V+G2ZZ/4T0Hgsv43Ur5S9bQisDXLEfJCoeqy2kUdNQdIiKOY6MT7DElSwPU8f/7cd77z7ycnJk6cPDE3Oysufo/tzMzM8jLGMKkinwZE66KJjwvo94dnDChb8W/81l/zPC59lSmUy50Wfnv7+o3rTNGQUkXN2wnPqgx1yECh0urqGiyIoY56qhk/oFYjByZJMqR0faLPVgZKi5tZgVHJiCIWuxSKz8/Pk4UyKlsCAtHAXq1xKcvCR8zjQDwIVCFSM/RRiejziDEgGDGZNfDU7nYpV9RmJtZaEiyoVw6RmVQc6AEiSrOMUn+QFqECS9zK5cu0lBz2EmPj2i6zfJB+4cIFNgzHjx9nfVCRTwPUah3j7PGABuwhGANbOKYnFgANVeQFLyOaneAcEPqsD13S1JtQKvjrMMKwAJRhTlhFgLEH8eiFlhwjO4t0fVtgJF2wPQrEYVJv1CFBnLgcSZDqOehUHj7bh27K9alpEhk67EAzaIgU2futYcDasohDlFJw2+Oha+846KnoCMHqDkN3P4iCgqpQTXK3Njc36JlZQQ+uqnVuLonp0tUhHhswHOVf/MWfZ2wZ30zX2f5JL3Z2dlArpRfYTsjJQUGDhLnt6tVr77zzHq780tIi+oRDhe6P+0Fl+EpvkrroimJZ3+GEqZTSlaIHoa8K1l0pk9Ua02qzI0UklpnQbLwOFhK/TU9ysFMVT/laCIPkeuJarkkYgJQx1ZLbj6yl22E/62hHr8jBgmXDioJYGSRBV7te/bCuymmjj7XjtjVb+JQ7bLS6nWavy1aq2W7vdHTFrdlxgJHu7nXbvU67TxU4oIXB7LyeW8Wi1XUyIbpE7byxujo2PsYeeqzRcCcd4iNB05JX7hQNjXtgeBq0h/83fuv/zhElZsYKdY89w+rqKkoAIVWwypOLnkv7vPteW7t148bq888/32g0bq3dxLGZmprCsSFXBgMsGWJKBaSpqhWExKrYIB55RK2RfWleswWDhYUFzknJ3BUdNVf3uxTENkmIsopEVPWJVnwzzo6pGKdZjrIUJyQOsl/F5AEpydUJUAK6K/wfEDsm0lQ8QAk9yVh1oWxrIWb6ErkfHDTpoICdMZW89eZbLBbHTxybmZ0Jyk8B3E90hU8eCwxH0FKl0/tAjGk68YV1VJpjMgb5JfanQbfF3NzV1aS2rrGipGxeWeJLerBUZoMZbWxs3L69fvLkKTyZmzdXmzvbjO7Ro0cpkowsRl9VKkTBqDsQBCDEsu8nA7UxNCFeXFwkixQvVxWO0QpkI7dcKaNnVktXYKgzVJPvALhSabX+ZY7Uk5ulPlBQbBudjlMdtTGgMnLyG8TUlXKTeaSuB67M/D0idJWUXimUGNpeIgJ6LljrzJs//Slzx+Ly8sTUp2YDTRNT7MlF+Zd+4ec1mB6vaC6+Ay5CWAK+BuOqLxDIJ7FailJHOb+4v71OpVypVev4Hbdv39ajy3pPRBp9YCtIGCpHVGetijPOOSEBXbebVEqXVqVRJk75MUmrlMbHULIo+VfQuVXc50J2CkQJpO9x4gQzMJIk4uVKJH3UwrlVXTz9mZgbER+uCSZJZJRNaabDUK9evVpr1GkgSy4pn4qQMNKWJw9SW02wnoOHCPWSVhD8Dj1PtN5GohIlFoTJyQksAcVt1BuTk1OQX7lybWenuaf3VCazhFHkuaE0Ur+sn1Vn6nRfr7F26n63Jm5P0EnjBQsriDxPNZQiblpymPQVVao4uH5RB00OkoOH4iNyBiIlECxGQJEUIjORJTgr6wrJE3V8ihCNe6JR/Ju/9V9YOTQHxuA1d3YYLGJsHre3t9rtFnpfr9U9jpCJVmPpJyZUTr9Go68ysp2MXUf0nFmS42qMKEUkUpQBXZp0pZnoCytSOHDscNdurl25tNIYH5ubm5tiu+kNOstRGEAUB5xKi81QFZOFDLDNaeTQq0J2xSrr8koGdt4k3G4h1VbWhL7utwcrP45qnyqIs7pi5YuywYpjHqEqVjpX6Ide2y3im5sbU1Mz+IETn577DBmG3f7kofxLv/gXkjEYJHW7upOKr8P4MfEzlrUaG2j56GEJjH0Uxika0XcUSJnOkZ6INOlH4u8sYe+pafwv9YojqrOzpVcBUIPehTGmpzOIY28uJOR8qEHFc56RnhmDz4DY5vyHWT6meMYh2mpSiadPFVFCInYiiJI+pLTRCKXCErzg6MpWxHVPpt7ApbRtfoqCWvOkhuJ/+df/cxSa/ahVXKPI3MwRd7bbbq/fvrW9tTk1Je/W4yswxtCi+igmJ3FJEwVwSHoATJbMJo/n+kEERApHaUgWD0B/ZWXlx6+/Pjs3d+rMGeZRUiAY5Rno+8Yca5mCQZ44QBOk4u3PtOXeW136dFlqGJWD6qzLujKUknxpqtdTE3Qin8e7hVRIIhH10aK6OD4eUbgRZ9nb2W5ubWy1WurqTwXUA086in/9r//n2hcnY9AQshQQQfs77datW7e2Njb8kFmNoc5HG1pmzigih9wdhQaklEzVOJVKJCNRaSJSDelcMIusfUA6xvCTN96QMZyWMbAwkArHjJXLDo1BiWLtRUkEQafELJI+RGY2pnOCPxUTRmQiqjQoVEkCxbGHdBJ1jiJqR7RUrekzMtKZCzp6UrLVacevH30q4G7Y09InC8W/9tdYGdKzQ6EDNJhIvVZrtVpra2vrG+vTMxhDAzUnQIJ/r5G2notF1j8UhAnwZEmqjEELiCwk1y4hqoh4YuL4aE/D4urKFYyBDUMYQ7WaVzn85IhLrgLikWb+4D3Uxcgb4S/xogm2D06zgrJVouLMOuOsaK78A92QFlKR3ZqRn46kE1HNkaLyAz03T4eY2R4GjzUyWT89Ej84iv/p/+0/wRcfHx+v1rQb1khbU2uVGltnVoaNzY2Z2ZkxjAHXyEqSPW2tOwBWsbyDYilIxmArqNjpIGtXJ5IbEWmZWJrEn5Glibjfv3J55cc/emNqaur4ieOYhPYtLjtagoOKiItSVZhERX3ieqTdsTiQHiniYsqIAy0bto44M2sQpSjkc5VRPfrgJDVf9Fo5NPuTlRJErXIwTec6VRFSPP+U1YGfFmRNi7MnEsX/63/8f6lWqygcWzqNMypvh97G0JabtLUlYxgLYwgloFPQVb2F2yqSd1BuDIKNoaq5N73LNSFyI+4KxUNKIdbojdIhgD/G8MaPXp8Ynzh67Ojs7Gw807DPfoOIooK9H9hJSv2qoutVdWZLbZxECh+of2To1CuAjUGWnPiIUxiYoab70x9SadEDeYoIrAI+N3eoZbdQ+VxQ91K0XNTNmYp+1THSH3+kJqR2PIkoFP7/v2X25o0bNj4AAAAASUVORK5CYII=;" vertex="1" parent="1">
          <mxGeometry x="240" y="280" width="520" height="440" as="geometry" />
        </mxCell>
        <mxCell id="3XijYi_biGYoQepiDn00-21" value="" style="rounded=0;whiteSpace=wrap;html=1;strokeColor=none;fillColor=#98968a;" vertex="1" parent="1">
          <mxGeometry x="487" y="347" width="273" height="354" as="geometry" />
        </mxCell>
        <mxCell id="3XijYi_biGYoQepiDn00-7" value="" style="rounded=0;whiteSpace=wrap;html=1;strokeColor=none;fillColor=#a8a7a5;" vertex="1" parent="1">
          <mxGeometry x="256" y="336" width="504" height="11" as="geometry" />
        </mxCell>
        <mxCell id="3XijYi_biGYoQepiDn00-18" value="" style="rounded=0;whiteSpace=wrap;html=1;strokeColor=none;fillColor=#908b7f;" vertex="1" parent="1">
          <mxGeometry x="346" y="701" width="414" height="19" as="geometry" />
        </mxCell>
        <mxCell id="3XijYi_biGYoQepiDn00-14" value="" style="rounded=0;whiteSpace=wrap;html=1;strokeColor=default;gradientColor=none;fillColor=#7a7875;" vertex="1" parent="1">
          <mxGeometry x="346" y="336" width="141" height="371" as="geometry" />
        </mxCell>
        <mxCell id="3XijYi_biGYoQepiDn00-16" value="" style="rounded=0;whiteSpace=wrap;html=1;strokeColor=none;fillColor=#737067;" vertex="1" parent="1">
          <mxGeometry x="366" y="347" width="96" height="335" as="geometry" />
        </mxCell>
        <mxCell id="3XijYi_biGYoQepiDn00-2" value="" style="rounded=0;whiteSpace=wrap;html=1;strokeColor=none;fillColor=#8a8b8a;" vertex="1" parent="1">
          <mxGeometry x="240" y="280" width="16" height="440" as="geometry" />
        </mxCell>
        <mxCell id="3XijYi_biGYoQepiDn00-3" value="" style="rounded=0;whiteSpace=wrap;html=1;strokeColor=none;fillColor=#898889;" vertex="1" parent="1">
          <mxGeometry x="256" y="280" width="504" height="7" as="geometry" />
        </mxCell>
        <mxCell id="3XijYi_biGYoQepiDn00-4" value="" style="rounded=0;whiteSpace=wrap;html=1;fillColor=#736c64;strokeColor=none;gradientColor=#93928b;" vertex="1" parent="1">
          <mxGeometry x="256" y="287" width="504" height="11" as="geometry" />
        </mxCell>
        <mxCell id="3XijYi_biGYoQepiDn00-5" value="" style="rounded=0;whiteSpace=wrap;html=1;strokeColor=none;fillColor=#93928b;" vertex="1" parent="1">
          <mxGeometry x="256" y="298" width="504" height="38" as="geometry" />
        </mxCell>
        <mxCell id="3XijYi_biGYoQepiDn00-6" value="" style="rounded=0;whiteSpace=wrap;html=1;strokeColor=none;fillColor=#9d9b95;" vertex="1" parent="1">
          <mxGeometry x="268" y="328" width="492" height="4" as="geometry" />
        </mxCell>
        <mxCell id="3XijYi_biGYoQepiDn00-10" value="" style="rounded=0;whiteSpace=wrap;html=1;strokeColor=none;fillColor=#529853;" vertex="1" parent="1">
          <mxGeometry x="488" y="565" width="272" height="24" as="geometry" />
        </mxCell>
        <mxCell id="3XijYi_biGYoQepiDn00-11" value="" style="rounded=0;whiteSpace=wrap;html=1;strokeColor=none;fillColor=#232f7d;" vertex="1" parent="1">
          <mxGeometry x="488" y="589" width="272" height="27" as="geometry" />
        </mxCell>
        <mxCell id="3XijYi_biGYoQepiDn00-12" value="" style="rounded=0;whiteSpace=wrap;html=1;strokeColor=none;fillColor=#888477;" vertex="1" parent="1">
          <mxGeometry x="256" y="692" width="90" height="28" as="geometry" />
        </mxCell>
        <mxCell id="3XijYi_biGYoQepiDn00-13" value="" style="rounded=0;whiteSpace=wrap;html=1;strokeColor=none;fillColor=#66635c;" vertex="1" parent="1">
          <mxGeometry x="256" y="347" width="89" height="345" as="geometry" />
        </mxCell>
        <mxCell id="3XijYi_biGYoQepiDn00-8" value="" style="rounded=0;whiteSpace=wrap;html=1;strokeColor=none;fillColor=#529853;" vertex="1" parent="1">
          <mxGeometry x="272" y="562" width="65" height="27" as="geometry" />
        </mxCell>
        <mxCell id="3XijYi_biGYoQepiDn00-9" value="" style="rounded=0;whiteSpace=wrap;html=1;strokeColor=none;fillColor=#232f7d;" vertex="1" parent="1">
          <mxGeometry x="272" y="589" width="65" height="27" as="geometry" />
        </mxCell>
        <mxCell id="3XijYi_biGYoQepiDn00-15" value="" style="rounded=0;whiteSpace=wrap;html=1;fillColor=#181c1e;" vertex="1" parent="1">
          <mxGeometry x="377" y="373" width="70" height="132" as="geometry" />
        </mxCell>
        <mxCell id="3XijYi_biGYoQepiDn00-17" value="" style="rounded=0;whiteSpace=wrap;html=1;fillColor=#969590;strokeColor=none;" vertex="1" parent="1">
          <mxGeometry x="353" y="682" width="122" height="15" as="geometry" />
        </mxCell>
        <mxCell id="3XijYi_biGYoQepiDn00-19" value="" style="rounded=0;whiteSpace=wrap;html=1;strokeColor=none;fillColor=#bfbfbf;" vertex="1" parent="1">
          <mxGeometry x="447" y="517" width="8" height="19" as="geometry" />
        </mxCell>
        <mxCell id="3XijYi_biGYoQepiDn00-20" value="" style="rounded=0;whiteSpace=wrap;html=1;strokeColor=none;fillColor=#CFCFCF;" vertex="1" parent="1">
          <mxGeometry x="435" y="522" width="15" height="5" as="geometry" />
        </mxCell>
      </root>
    </mxGraphModel>
  </diagram>
</mxfile>
